<?xml version="1.0" encoding="UTF-8" standalone="no"?>
<svg
   xmlns:dc="http://purl.org/dc/elements/1.1/"
   xmlns:cc="http://creativecommons.org/ns#"
   xmlns:rdf="http://www.w3.org/1999/02/22-rdf-syntax-ns#"
   xmlns:svg="http://www.w3.org/2000/svg"
   xmlns="http://www.w3.org/2000/svg"
   xmlns:xlink="http://www.w3.org/1999/xlink"
   xmlns:sodipodi="http://sodipodi.sourceforge.net/DTD/sodipodi-0.dtd"
   xmlns:inkscape="http://www.inkscape.org/namespaces/inkscape"
   height="66"
   width="420"
   version="1.1"
   id="svg10"
   sodipodi:docname="home_menu_smartphonelink.svg"
   shape-rendering="crispEdges"
   inkscape:version="0.92.2 (5c3e80d, 2017-08-06)">
  <metadata
     id="metadata16">
    <rdf:RDF>
      <cc:Work
         rdf:about="">
        <dc:format>image/svg+xml</dc:format>
        <dc:type
           rdf:resource="http://purl.org/dc/dcmitype/StillImage" />
        <dc:title></dc:title>
      </cc:Work>
    </rdf:RDF>
  </metadata>
  <defs
     id="defs14" />
  <sodipodi:namedview
     pagecolor="#ffffff"
     bordercolor="#666666"
     borderopacity="1"
     objecttolerance="10"
     gridtolerance="10"
     guidetolerance="10"
     inkscape:pageopacity="0"
     inkscape:pageshadow="2"
     inkscape:window-width="1528"
     inkscape:window-height="755"
     id="namedview12"
     showgrid="false"
     showguides="true"
     inkscape:guide-bbox="true"
     inkscape:zoom="1.7745474"
     inkscape:cx="139.80482"
     inkscape:cy="-10.435341"
     inkscape:window-x="1232"
     inkscape:window-y="206"
     inkscape:window-maximized="0"
     inkscape:current-layer="layer2">
    <sodipodi:guide
       position="25,7"
       orientation="-0.70710678,0.70710678"
       id="guide847"
       inkscape:locked="false" />
  </sodipodi:namedview>
  <g
     inkscape:label="Original home_menu_smartphonelink_n"
     inkscape:groupmode="layer"
     sodipodi:insensitive="true"
     id="Original_home_menu_smartphonelink_n"
     style="display:none">
    <image
       sodipodi:absref="P:\tank\Projects\Chevy MyLink\theme\lcars\Multi Language\American English\home menu\../../../../BYOM/Multi Language/American English/home menu/home_menu_smartphonelink_n.png"
       xlink:href="../../../../BYOM/Multi Language/American English/home menu/home_menu_smartphonelink_n.png"
       id="image2"
       width="365"
       height="66"
       y="0"
       x="0" />
  </g>
  <g
     inkscape:label="Original home_menu_smartphonelink_p"
     inkscape:groupmode="layer"
     sodipodi:insensitive="true"
     id="Original_home_menu_smartphonelink_p"
     style="display:none">
    <image
       sodipodi:absref="P:\tank\Projects\Chevy MyLink\theme\lcars\Multi Language\American English\home menu\../../../../BYOM/Multi Language/American English/home menu/home_menu_smartphonelink_p.png"
       xlink:href="../../../../BYOM/Multi Language/American English/home menu/home_menu_smartphonelink_p.png"
       id="image5"
       width="365"
       height="66"
       y="0"
       x="0" />
  </g>
  <g
     inkscape:groupmode="layer"
     id="layer1"
     inkscape:label="Background">
    <rect
       style="opacity:1;fill:#000000;fill-opacity:1;fill-rule:evenodd;stroke:none;stroke-width:0;stroke-linecap:butt;stroke-linejoin:miter;stroke-miterlimit:4;stroke-dasharray:none;stroke-opacity:1"
       id="rect824"
       width="395"
       height="66"
       x="25"
       y="0" />
  </g>
  <g
     inkscape:label="New home_menu_smartphonelink_n"
     inkscape:groupmode="layer"
     id="New_home_menu_smartphonelink_n">
    <path
       style="display:inline;opacity:1;fill:#cd6799;fill-opacity:1;fill-rule:evenodd;stroke:none;stroke-width:0;stroke-linecap:butt;stroke-linejoin:miter;stroke-miterlimit:4;stroke-dasharray:none;stroke-opacity:1"
       d="m 25,9 h 343 c 11.53046,0 24.74235,12.122291 25,23.907403 C 393.25765,44.692514 380.04539,59 368,59 H 25 Z"
       id="rect18"
       inkscape:connector-curvature="0"
       sodipodi:nodetypes="cszscc" />
  </g>
  <g
     inkscape:label="New home_menu_smartphonelink_p"
     inkscape:groupmode="layer"
     id="New_home_menu_smartphonelink_p"
     style="display:none">
    <path
       style="display:inline;opacity:1;fill:#dc94b7;fill-opacity:1;fill-rule:evenodd;stroke:none;stroke-width:0;stroke-linecap:butt;stroke-linejoin:miter;stroke-miterlimit:4;stroke-dasharray:none;stroke-opacity:1"
       d="m 25,9.000001 h 343 c 11.53045,0 24.74234,12.122291 25,23.907403 C 393.25765,44.692515 380.04538,59 368,59 H 25 Z"
       id="rect18-2"
       inkscape:connector-curvature="0"
       sodipodi:nodetypes="cszscc" />
  </g>
  <g
     inkscape:groupmode="layer"
     id="layer2"
     inkscape:label="Text"
     style="display:inline">
    <g
       aria-label="Communicator Link"
       style="font-style:normal;font-variant:normal;font-weight:normal;font-stretch:normal;font-size:37.33333206px;line-height:1.25;font-family:okuda;-inkscape-font-specification:okuda;letter-spacing:0px;word-spacing:0px;fill:#000000;fill-opacity:1;stroke:none"
       id="text845"
       transform="translate(-1.66703,6.517467)">
      <path
         d="m 41.047238,38.102324 h 2.734375 v 1.367188 q 0,5.013021 -3.645833,5.013021 h -1.822916 q -3.645834,0 -3.645834,-5.013021 V 24.886179 q 0,-5.013021 3.645834,-5.013021 h 1.822916 q 3.645833,0 3.645833,5.013021 v 1.367187 h -2.734375 v -2.278645 q 0,-1.367188 -1.367187,-1.367188 h -0.911458 q -1.367188,0 -1.367188,1.367188 V 40.38097 q 0,1.367188 1.367188,1.367188 h 0.911458 q 1.367187,0 1.367187,-1.367188 z"
         id="path849"
         inkscape:connector-curvature="0" />
      <path
         d="m 48.703488,28.076283 q -1.385417,0 -1.385417,1.367188 V 40.38097 q 0,1.367188 1.367188,1.367188 1.367187,0 1.367187,-1.367188 V 29.443471 q 0,-1.367188 -1.348958,-1.367188 z m 4.083333,11.393229 q 0,5.013021 -3.645833,5.013021 H 48.22953 q -3.645834,0 -3.645834,-5.013021 v -9.114583 q 0,-5.013021 3.645834,-5.013021 h 0.911458 q 3.645833,0 3.645833,5.013021 z"
         id="path851"
         inkscape:connector-curvature="0" />
      <path
         d="m 60.114946,29.443471 q 0,-1.367188 -1.367187,-1.367188 -1.367188,0 -1.367188,1.367188 V 44.482533 H 54.646196 V 25.341908 h 2.734375 v 1.367188 q 0.455729,-1.367188 1.822917,-1.367188 1.367187,0 2.278646,1.367188 0.911458,-1.367188 2.278645,-1.367188 h 0.911459 q 3.645833,0 3.645833,5.013021 V 44.482533 H 65.583696 V 29.443471 q 0,-1.367188 -1.367187,-1.367188 -1.367188,0 -1.367188,1.367188 v 15.039062 h -2.734375 z"
         id="path853"
         inkscape:connector-curvature="0" />
      <path
         d="m 75.646194,29.443471 q 0,-1.367188 -1.367187,-1.367188 -1.367188,0 -1.367188,1.367188 V 44.482533 H 70.177444 V 25.341908 h 2.734375 v 1.367188 q 0.45573,-1.367188 1.822917,-1.367188 1.367187,0 2.278646,1.367188 0.911458,-1.367188 2.278645,-1.367188 h 0.911459 q 3.645833,0 3.645833,5.013021 V 44.482533 H 81.114944 V 29.443471 q 0,-1.367188 -1.367187,-1.367188 -1.367188,0 -1.367188,1.367188 v 15.039062 h -2.734375 z"
         id="path855"
         inkscape:connector-curvature="0" />
      <path
         d="m 91.177444,25.341908 h 2.734375 v 19.140625 h -2.734375 v -1.367188 q -0.455729,1.367188 -1.822916,1.367188 -3.645834,0 -3.645834,-5.013021 V 25.341908 h 2.734375 V 40.38097 q 0,1.367188 1.367188,1.367188 1.367187,0 1.367187,-1.367188 z"
         id="path857"
         inkscape:connector-curvature="0" />
      <path
         d="M 98.505569,44.482533 H 95.771194 V 25.341908 h 2.734375 v 1.367188 q 0.45573,-1.367188 1.822921,-1.367188 3.64583,0 3.64583,5.013021 v 14.127604 h -2.73438 V 29.443471 q 0,-1.367188 -1.367183,-1.367188 -1.367188,0 -1.367188,1.367188 z"
         id="path859"
         inkscape:connector-curvature="0" />
      <path
         d="M 105.83369,44.482533 V 25.341908 h 2.73438 v 19.140625 z m 2.73438,-24.609375 v 2.734375 h -2.73438 v -2.734375 z"
         id="path861"
         inkscape:connector-curvature="0" />
      <path
         d="m 115.89619,38.102324 h 2.73438 v 1.367188 q 0,5.013021 -3.64583,5.013021 h -0.91146 q -3.64584,0 -3.64584,-5.013021 v -9.114583 q 0,-5.013021 3.64584,-5.013021 h 0.91146 q 3.64583,0 3.64583,5.013021 v 1.367187 h -2.73438 v -2.278645 q 0,-1.367188 -1.34895,-1.367188 -1.38542,0 -1.38542,1.367188 V 40.38097 q 0,1.367188 1.36719,1.367188 1.36718,0 1.36718,-1.367188 z"
         id="path863"
         inkscape:connector-curvature="0" />
      <path
         d="m 124.59151,41.748158 q 1.36718,0 1.36718,-1.367188 v -5.46875 q -0.45572,0.911459 -1.36718,0.911459 -1.36719,0 -1.36719,1.367187 v 3.190104 q 0.0182,1.367188 1.36719,1.367188 z m -4.10157,-3.645834 q 0,-5.468749 3.64584,-5.468749 1.36719,0 1.82291,-1.367188 v -1.822916 q 0,-1.367188 -1.29427,-1.367188 -1.4401,0 -1.4401,1.367188 v 1.367187 h -2.73438 V 29.8992 q 0,-4.557292 3.64584,-4.557292 h 0.91146 q 3.64583,0 3.64583,4.557292 v 14.583333 h -2.73438 l 0.0182,-1.385417 q -0.47395,1.385417 -1.82291,1.385417 -3.66407,0 -3.66407,-5.013021 z"
         id="path865"
         inkscape:connector-curvature="0" />
      <path
         d="m 134.0889,44.482533 q -2.73437,0 -2.73437,-2.734375 V 28.076283 h -1.82292 v -2.734375 h 1.82292 v -2.734375 h 2.73437 v 2.734375 h 1.82292 v 2.734375 h -1.82292 v 12.760416 q 0,0.911459 1.09375,0.911459 h 0.72917 v 2.734375 z"
         id="path867"
         inkscape:connector-curvature="0" />
      <path
         d="m 141.89099,28.076283 q -1.38542,0 -1.38542,1.367188 V 40.38097 q 0,1.367188 1.36719,1.367188 1.36718,0 1.36718,-1.367188 V 29.443471 q 0,-1.367188 -1.34895,-1.367188 z m 4.08333,11.393229 q 0,5.013021 -3.64583,5.013021 h -0.91146 q -3.64584,0 -3.64584,-5.013021 v -9.114583 q 0,-5.013021 3.64584,-5.013021 h 0.91146 q 3.64583,0 3.64583,5.013021 z"
         id="path869"
         inkscape:connector-curvature="0" />
      <path
         d="m 150.56807,44.482533 h -2.73438 V 25.341908 h 2.73438 v 1.367188 q 0.45573,-1.367188 1.82292,-1.367188 3.64583,0 3.64583,5.013021 h -2.73438 v -0.911458 q 0,-1.367188 -1.36718,-1.367188 -1.36719,0 -1.36719,1.367188 z"
         id="path871"
         inkscape:connector-curvature="0" />
      <path
         d="M 165.18786,44.482533 V 19.873158 h 2.73437 v 21.875 h 5.46875 v 2.734375 z"
         id="path873"
         inkscape:connector-curvature="0" />
      <path
         d="M 174.22953,44.482533 V 25.341908 h 2.73438 v 19.140625 z m 2.73438,-24.609375 v 2.734375 h -2.73438 v -2.734375 z"
         id="path875"
         inkscape:connector-curvature="0" />
      <path
         d="m 181.55766,44.482533 h -2.73438 V 25.341908 h 2.73438 v 1.367188 q 0.45572,-1.367188 1.82291,-1.367188 3.64584,0 3.64584,5.013021 v 14.127604 h -2.73438 V 29.443471 q 0,-1.367188 -1.36719,-1.367188 -1.36718,0 -1.36718,1.367188 z"
         id="path877"
         inkscape:connector-curvature="0" />
      <path
         d="m 197.08891,44.482533 h -2.73438 l -2.73437,-7.65625 v 7.65625 h -2.73438 V 19.873158 h 2.73438 v 12.578125 l 3.28125,-7.109375 h 2.1875 l -3.82813,8.75 v 1.09375 z"
         id="path879"
         inkscape:connector-curvature="0" />
    </g>
  </g>
</svg>
