<?xml version="1.0" encoding="UTF-8" standalone="no"?>
<svg
   xmlns:dc="http://purl.org/dc/elements/1.1/"
   xmlns:cc="http://creativecommons.org/ns#"
   xmlns:rdf="http://www.w3.org/1999/02/22-rdf-syntax-ns#"
   xmlns:svg="http://www.w3.org/2000/svg"
   xmlns="http://www.w3.org/2000/svg"
   xmlns:xlink="http://www.w3.org/1999/xlink"
   xmlns:sodipodi="http://sodipodi.sourceforge.net/DTD/sodipodi-0.dtd"
   xmlns:inkscape="http://www.inkscape.org/namespaces/inkscape"
   height="66"
   width="420"
   version="1.1"
   id="svg10"
   sodipodi:docname="home_menu_climatesetting.svg"
   inkscape:version="0.92.2 (5c3e80d, 2017-08-06)">
  <metadata
     id="metadata16">
    <rdf:RDF>
      <cc:Work
         rdf:about="">
        <dc:format>image/svg+xml</dc:format>
        <dc:type
           rdf:resource="http://purl.org/dc/dcmitype/StillImage" />
        <dc:title />
      </cc:Work>
    </rdf:RDF>
  </metadata>
  <defs
     id="defs14" />
  <sodipodi:namedview
     pagecolor="#ffffff"
     bordercolor="#666666"
     borderopacity="1"
     objecttolerance="10"
     gridtolerance="10"
     guidetolerance="10"
     inkscape:pageopacity="0"
     inkscape:pageshadow="2"
     inkscape:window-width="1529"
     inkscape:window-height="841"
     id="namedview12"
     showgrid="false"
     inkscape:zoom="3.611438"
     inkscape:cx="3.4280782"
     inkscape:cy="13.934729"
     inkscape:window-x="0"
     inkscape:window-y="0"
     inkscape:window-maximized="0"
     inkscape:current-layer="layer2"
     inkscape:lockguides="false"
     showguides="true"
     inkscape:guide-bbox="true">
    <sodipodi:guide
       position="25,7"
       orientation="-0.70710678,0.70710678"
       id="guide860"
       inkscape:locked="false" />
  </sodipodi:namedview>
  <g
     inkscape:label="Original home_menu_climatesetting_n"
     inkscape:groupmode="layer"
     sodipodi:insensitive="true"
     id="Original_home_menu_climatesetting_n"
     style="display:none">
    <image
       sodipodi:absref="P:\tank\Projects\Chevy MyLink\theme\lcars\Multi Language\American English\home menu\../../../../BYOM/Multi Language/American English/home menu/home_menu_climatesetting_n.png"
       xlink:href="../../../../BYOM/Multi Language/American English/home menu/home_menu_climatesetting_n.png"
       id="image2"
       width="354"
       height="66"
       y="0"
       x="0" />
  </g>
  <g
     inkscape:label="Original home_menu_climatesetting_p"
     inkscape:groupmode="layer"
     sodipodi:insensitive="true"
     id="Original_home_menu_climatesetting_p"
     style="display:none">
    <image
       sodipodi:absref="P:\tank\Projects\Chevy MyLink\theme\lcars\Multi Language\American English\home menu\../../../../BYOM/Multi Language/American English/home menu/home_menu_climatesetting_p.png"
       xlink:href="../../../../BYOM/Multi Language/American English/home menu/home_menu_climatesetting_p.png"
       id="image5"
       width="354"
       height="66"
       y="0"
       x="0" />
  </g>
  <g
     inkscape:groupmode="layer"
     id="layer1"
     inkscape:label="Background">
    <rect
       style="opacity:1;fill:#000000;fill-opacity:1;fill-rule:evenodd;stroke:none;stroke-width:0;stroke-linecap:butt;stroke-linejoin:miter;stroke-miterlimit:4;stroke-dasharray:none;stroke-opacity:1"
       id="rect824"
       width="395"
       height="66"
       x="25"
       y="0" />
  </g>
  <g
     inkscape:label="New home_menu_climatesetting_n"
     inkscape:groupmode="layer"
     id="New_home_menu_climatesetting_n"
     style="display:inline">
    <path
       style="display:inline;opacity:1;fill:#9a99ff;fill-opacity:1;fill-rule:evenodd;stroke:none;stroke-width:0;stroke-linecap:butt;stroke-linejoin:miter;stroke-miterlimit:4;stroke-dasharray:none;stroke-opacity:1"
       d="m 25,9 h 343 c 11.53046,0 24.74235,12.122291 25,23.907403 C 393.25765,44.692514 380.04539,59 368,59 H 25 Z"
       id="rect18"
       inkscape:connector-curvature="0"
       sodipodi:nodetypes="cszscc" />
  </g>
  <g
     inkscape:label="New home_menu_climatesetting_p"
     inkscape:groupmode="layer"
     id="New_home_menu_climatesetting_p"
     style="display:none">
    <path
       style="display:inline;opacity:1;fill:#bfbfff;fill-opacity:1;fill-rule:evenodd;stroke:none;stroke-width:0;stroke-linecap:butt;stroke-linejoin:miter;stroke-miterlimit:4;stroke-dasharray:none;stroke-opacity:1"
       d="m 25,9 h 343 c 11.53046,0 24.74235,12.122291 25,23.907403 C 393.25765,44.692514 380.04539,59 368,59 H 25 Z"
       id="rect18-9"
       inkscape:connector-curvature="0"
       sodipodi:nodetypes="cszscc" />
  </g>
  <g
     inkscape:groupmode="layer"
     id="layer2"
     inkscape:label="Text">
    <g
       aria-label="Life Support"
       style="font-style:normal;font-variant:normal;font-weight:normal;font-stretch:normal;font-size:37.33333206px;line-height:1.25;font-family:okuda;-inkscape-font-specification:okuda;letter-spacing:0px;word-spacing:0px;fill:#000000;fill-opacity:1;stroke:none"
       id="text864">
      <path
         d="M 33,51.53125 V 26.921876 h 2.734375 v 21.874999 h 5.46875 v 2.734375 z"
         id="path828"
         inkscape:connector-curvature="0" />
      <path
         d="M 42.041666,51.53125 V 32.390626 h 2.734375 V 51.53125 Z m 2.734375,-24.609374 v 2.734375 h -2.734375 v -2.734375 z"
         id="path830"
         inkscape:connector-curvature="0" />
      <path
         d="m 53.015624,26.921876 v 2.734375 h -0.455729 q -1.367187,0 -1.367187,1.367187 v 1.367188 h 1.822916 v 2.734375 H 51.192708 V 51.53125 H 48.458333 V 35.125001 h -1.822917 v -2.734375 h 1.822917 v -0.455729 q 0,-5.013021 4.557291,-5.013021 z"
         id="path832"
         inkscape:connector-curvature="0" />
      <path
         d="m 55.859375,43.328125 v 4.101563 q 0,1.367187 1.367187,1.367187 1.367188,0 1.367188,-1.367187 v -2.278646 h 2.734375 v 1.367187 q 0,5.013021 -3.645833,5.013021 h -0.911459 q -3.645833,0 -3.645833,-5.013021 v -9.114583 q 0,-5.01302 3.645833,-5.01302 h 0.911459 q 3.645833,0 3.645833,5.01302 v 5.924479 z m 2.734375,-6.835937 q 0,-1.367187 -1.348958,-1.367187 -1.385417,0 -1.385417,1.367187 v 4.101562 h 2.734375 z"
         id="path834"
         inkscape:connector-curvature="0" />
      <path
         d="m 73.213539,34.213542 q 0,1.822917 3.190104,4.338542 3.190104,2.497396 3.190104,4.776041 v 3.190104 q 0,5.013021 -3.645833,5.013021 h -1.822917 q -3.645833,0 -3.645833,-5.013021 v -1.367187 h 2.734375 v 2.278646 q 0,1.367187 1.367187,1.367187 h 0.911459 q 1.367187,0 1.367187,-1.367187 v -3.645834 q 0,-1.822916 -3.190104,-4.320312 -3.190104,-2.515625 -3.190104,-4.885416 v -2.643229 q 0,-5.013021 3.645833,-5.013021 h 1.822917 q 3.645833,0 3.645833,5.013021 v 1.367187 h -2.734375 v -2.278646 q 0,-1.367187 -1.367187,-1.367187 h -0.911459 q -1.367187,0 -1.367187,1.367187 z"
         id="path836"
         inkscape:connector-curvature="0" />
      <path
         d="m 86.885414,32.390626 h 2.734375 V 51.53125 h -2.734375 v -1.367187 q -0.455729,1.367187 -1.822917,1.367187 -3.645833,0 -3.645833,-5.013021 V 32.390626 h 2.734375 v 15.039062 q 0,1.367187 1.367187,1.367187 1.367188,0 1.367188,-1.367187 z"
         id="path838"
         inkscape:connector-curvature="0" />
      <path
         d="m 95.580726,35.125001 q -1.367187,0 -1.367187,1.367187 v 10.9375 q 0,1.367187 1.367187,1.367187 1.367188,0 1.367188,-1.367187 v -10.9375 q -0.01823,-1.367187 -1.367188,-1.367187 z m 4.101563,11.393228 q 0,5.013021 -3.645833,5.013021 -1.367188,0 -1.822917,-1.367187 v 6.817708 L 91.479164,57 V 32.390626 h 2.734375 v 1.367187 q 0.455729,-1.367187 1.822917,-1.367187 3.645833,0 3.645833,5.01302 z"
         id="path840"
         inkscape:connector-curvature="0" />
      <path
         d="m 105.64323,35.125001 q -1.36719,0 -1.36719,1.367187 v 10.9375 q 0,1.367187 1.36719,1.367187 1.36718,0 1.36718,-1.367187 v -10.9375 q -0.0182,-1.367187 -1.36718,-1.367187 z m 4.10156,11.393228 q 0,5.013021 -3.64583,5.013021 -1.36719,0 -1.82292,-1.367187 v 6.817708 L 101.54166,57 V 32.390626 h 2.73438 v 1.367187 q 0.45573,-1.367187 1.82292,-1.367187 3.64583,0 3.64583,5.01302 z"
         id="path842"
         inkscape:connector-curvature="0" />
      <path
         d="m 115.72396,35.125001 q -1.38542,0 -1.38542,1.367187 v 10.9375 q 0,1.367187 1.36719,1.367187 1.36718,0 1.36718,-1.367187 v -10.9375 q 0,-1.367187 -1.34895,-1.367187 z m 4.08333,11.393228 q 0,5.013021 -3.64583,5.013021 H 115.25 q -3.64584,0 -3.64584,-5.013021 v -9.114583 q 0,-5.01302 3.64584,-5.01302 h 0.91146 q 3.64583,0 3.64583,5.01302 z"
         id="path844"
         inkscape:connector-curvature="0" />
      <path
         d="m 124.40104,51.53125 h -2.73438 V 32.390626 h 2.73438 v 1.367187 q 0.45573,-1.367187 1.82292,-1.367187 3.64583,0 3.64583,5.01302 h -2.73438 v -0.911458 q 0,-1.367187 -1.36718,-1.367187 -1.36719,0 -1.36719,1.367187 z"
         id="path846"
         inkscape:connector-curvature="0" />
      <path
         d="m 135.26562,51.53125 q -2.73438,0 -2.73438,-2.734375 V 35.125001 h -1.82291 v -2.734375 h 1.82291 v -2.734375 h 2.73438 v 2.734375 h 1.82292 v 2.734375 h -1.82292 v 12.760416 q 0,0.911458 1.09375,0.911458 h 0.72917 v 2.734375 z"
         id="path848"
         inkscape:connector-curvature="0" />
    </g>
  </g>
</svg>
