<?xml version="1.0" encoding="UTF-8" standalone="no"?>
<svg
   xmlns:dc="http://purl.org/dc/elements/1.1/"
   xmlns:cc="http://creativecommons.org/ns#"
   xmlns:rdf="http://www.w3.org/1999/02/22-rdf-syntax-ns#"
   xmlns:svg="http://www.w3.org/2000/svg"
   xmlns="http://www.w3.org/2000/svg"
   xmlns:xlink="http://www.w3.org/1999/xlink"
   xmlns:sodipodi="http://sodipodi.sourceforge.net/DTD/sodipodi-0.dtd"
   xmlns:inkscape="http://www.inkscape.org/namespaces/inkscape"
   height="66"
   width="420"
   version="1.1"
   id="svg10"
   sodipodi:docname="home_menu_setting.svg"
   inkscape:version="0.92.2 (5c3e80d, 2017-08-06)">
  <metadata
     id="metadata16">
    <rdf:RDF>
      <cc:Work
         rdf:about="">
        <dc:format>image/svg+xml</dc:format>
        <dc:type
           rdf:resource="http://purl.org/dc/dcmitype/StillImage" />
        <dc:title></dc:title>
      </cc:Work>
    </rdf:RDF>
  </metadata>
  <defs
     id="defs14" />
  <sodipodi:namedview
     pagecolor="#ffffff"
     bordercolor="#666666"
     borderopacity="1"
     objecttolerance="10"
     gridtolerance="10"
     guidetolerance="10"
     inkscape:pageopacity="0"
     inkscape:pageshadow="2"
     inkscape:window-width="1452"
     inkscape:window-height="835"
     id="namedview12"
     showgrid="false"
     inkscape:zoom="0.79644554"
     inkscape:cx="-100.14332"
     inkscape:cy="45.450272"
     inkscape:window-x="127"
     inkscape:window-y="274"
     inkscape:window-maximized="0"
     inkscape:current-layer="New_home_menu_setting_n"
     showguides="true"
     inkscape:guide-bbox="true">
    <sodipodi:guide
       position="25,7"
       orientation="-0.70710678,0.70710678"
       id="guide953"
       inkscape:locked="false" />
  </sodipodi:namedview>
  <g
     inkscape:label="Original home_menu_setting_n"
     inkscape:groupmode="layer"
     sodipodi:insensitive="true"
     id="Original_home_menu_setting_n"
     style="display:none">
    <image
       sodipodi:absref="P:\tank\Projects\Chevy MyLink\theme\lcars\Multi Language\American English\home menu\../../../../BYOM/Multi Language/American English/home menu/home_menu_setting_n.png"
       xlink:href="../../../../BYOM/Multi Language/American English/home menu/home_menu_setting_n.png"
       id="image2"
       width="186"
       height="66"
       y="0"
       x="0" />
  </g>
  <g
     inkscape:label="Original home_menu_setting_p"
     inkscape:groupmode="layer"
     sodipodi:insensitive="true"
     id="Original_home_menu_setting_p"
     style="display:none">
    <image
       sodipodi:absref="P:\tank\Projects\Chevy MyLink\theme\lcars\Multi Language\American English\home menu\../../../../BYOM/Multi Language/American English/home menu/home_menu_setting_p.png"
       xlink:href="../../../../BYOM/Multi Language/American English/home menu/home_menu_setting_p.png"
       id="image5"
       width="186"
       height="66"
       y="0"
       x="0" />
  </g>
  <g
     inkscape:groupmode="layer"
     id="layer1"
     inkscape:label="Background">
    <rect
       style="opacity:1;fill:#000000;fill-opacity:1;fill-rule:evenodd;stroke:none;stroke-width:0;stroke-linecap:butt;stroke-linejoin:miter;stroke-miterlimit:4;stroke-dasharray:none;stroke-opacity:1"
       id="rect824"
       width="395"
       height="66"
       x="25"
       y="0" />
  </g>
  <g
     inkscape:label="New home_menu_setting_n"
     inkscape:groupmode="layer"
     id="New_home_menu_setting_n">
    <path
       style="display:inline;opacity:1;fill:#9999cd;fill-opacity:1;fill-rule:evenodd;stroke:none;stroke-width:0;stroke-linecap:butt;stroke-linejoin:miter;stroke-miterlimit:4;stroke-dasharray:none;stroke-opacity:1"
       d="m 25,9.0000001 h 343 c 11.53046,0 24.74235,12.1222899 25,23.9074099 C 393.25765,44.69252 380.04539,59 368,59 H 25 Z"
       id="rect18"
       inkscape:connector-curvature="0"
       sodipodi:nodetypes="cszscc" />
  </g>
  <g
     inkscape:label="New home_menu_setting_p"
     inkscape:groupmode="layer"
     id="New_home_menu_setting_p"
     style="display:none">
    <path
       style="display:inline;opacity:1;fill:#b3b3da;fill-opacity:1;fill-rule:evenodd;stroke:none;stroke-width:0;stroke-linecap:butt;stroke-linejoin:miter;stroke-miterlimit:4;stroke-dasharray:none;stroke-opacity:1"
       d="m 25,9 h 343 c 11.53046,0 24.74235,12.12229 25,23.90741 C 393.25765,44.69252 380.04539,59 368,59 H 25 Z"
       id="rect18-2"
       inkscape:connector-curvature="0"
       sodipodi:nodetypes="cszscc" />
  </g>
  <g
     inkscape:groupmode="layer"
     id="layer2"
     inkscape:label="Text">
    <g
       aria-label="Settings"
       style="font-style:normal;font-variant:normal;font-weight:normal;font-stretch:normal;font-size:37.33333206px;line-height:1.25;font-family:okuda;-inkscape-font-specification:okuda;letter-spacing:0px;word-spacing:0px;fill:#000000;fill-opacity:1;stroke:none"
       id="text957"
       transform="translate(-5.192204,4.811995)">
      <path
         d="m 40.926578,28.490089 q 0,1.822916 3.190104,4.338541 3.190105,2.497396 3.190105,4.776042 v 3.190104 q 0,5.01302 -3.645834,5.01302 h -1.822916 q -3.645833,0 -3.645833,-5.01302 v -1.367188 h 2.734374 v 2.278646 q 0,1.367188 1.367188,1.367188 h 0.911458 q 1.367188,0 1.367188,-1.367188 v -3.645833 q 0,-1.822917 -3.190104,-4.320312 -3.190104,-2.515625 -3.190104,-4.885417 v -2.643229 q 0,-5.013021 3.645833,-5.013021 h 1.822916 q 3.645834,0 3.645834,5.013021 v 1.367187 h -2.734375 v -2.278645 q 0,-1.367188 -1.367188,-1.367188 h -0.911458 q -1.367188,0 -1.367188,1.367188 z"
         id="path959"
         inkscape:connector-curvature="0" />
      <path
         d="m 51.864078,37.604672 v 4.101562 q 0,1.367188 1.367188,1.367188 1.367187,0 1.367187,-1.367188 v -2.278646 h 2.734375 v 1.367188 q 0,5.01302 -3.645833,5.01302 h -0.911458 q -3.645833,0 -3.645833,-5.01302 v -9.114583 q 0,-5.013021 3.645833,-5.013021 h 0.911458 q 3.645833,0 3.645833,5.013021 v 5.924479 z m 2.734375,-6.835938 q 0,-1.367187 -1.348958,-1.367187 -1.385417,0 -1.385417,1.367187 v 4.101563 h 2.734375 z"
         id="path961"
         inkscape:connector-curvature="0" />
      <path
         d="m 62.728661,45.807796 q -2.734375,0 -2.734375,-2.734374 V 29.401547 H 58.17137 v -2.734375 h 1.822916 v -2.734375 h 2.734375 v 2.734375 h 1.822917 v 2.734375 h -1.822917 v 12.760416 q 0,0.911459 1.09375,0.911459 h 0.729167 v 2.734374 z"
         id="path963"
         inkscape:connector-curvature="0" />
      <path
         d="m 69.947411,45.807796 q -2.734375,0 -2.734375,-2.734374 V 29.401547 H 65.39012 v -2.734375 h 1.822916 v -2.734375 h 2.734375 v 2.734375 h 1.822917 v 2.734375 h -1.822917 v 12.760416 q 0,0.911459 1.09375,0.911459 h 0.729167 v 2.734374 z"
         id="path965"
         inkscape:connector-curvature="0" />
      <path
         d="M 73.629704,45.807796 V 26.667172 h 2.734374 v 19.140624 z m 2.734374,-24.609374 v 2.734375 h -2.734374 v -2.734375 z"
         id="path967"
         inkscape:connector-curvature="0" />
      <path
         d="M 80.957828,45.807796 H 78.223454 V 26.667172 h 2.734374 v 1.367188 q 0.45573,-1.367188 1.822917,-1.367188 3.645833,0 3.645833,5.013021 V 45.807796 H 83.692203 V 30.768734 q 0,-1.367187 -1.367187,-1.367187 -1.367188,0 -1.367188,1.367187 z"
         id="path969"
         inkscape:connector-curvature="0" />
      <path
         d="m 92.387516,43.073422 q 1.367187,0 1.367187,-1.367188 v -10.9375 q 0,-1.367187 -1.385416,-1.367187 -1.348959,0 -1.348959,1.367187 v 10.9375 q 0,1.367188 1.367188,1.367188 z M 88.285954,31.680193 q 0,-5.013021 3.828124,-5.013021 1.184896,0 1.640625,1.549479 v -1.549479 h 2.734375 v 20.507812 q 0,5.013021 -3.645833,5.013021 l -0.911458,-0.01823 q -3.645833,0 -3.645833,-4.994791 h 2.734374 v 0.911458 q 0,1.367188 1.367188,1.367188 1.367187,0 1.367187,-1.367188 v -3.645833 q -0.455729,1.367187 -1.822916,1.367187 -3.645833,0 -3.645833,-5.01302 z"
         id="path971"
         inkscape:connector-curvature="0" />
      <path
         d="m 101.08283,31.224464 q 0,1.458333 2.73437,4.611979 2.73438,3.135416 2.73438,4.958333 v 0.455729 q 0,4.557291 -3.64583,4.557291 h -0.91146 q -3.645836,0 -3.645836,-4.557291 v -0.911458 h 2.734376 v 1.367187 q 0,1.367188 1.36719,1.367188 1.36718,0 1.36718,-1.367188 v -0.455729 q 0,-1.002604 -2.73437,-4.411458 -2.734376,-3.427083 -2.734376,-5.158854 v -0.455729 q 0,-4.557292 3.645836,-4.557292 h 0.91146 q 3.64583,0 3.64583,4.557292 v 0.911458 h -2.73438 v -1.367188 q 0,-1.367187 -1.34895,-1.367187 -1.38542,0 -1.38542,1.367187 z"
         id="path973"
         inkscape:connector-curvature="0" />
    </g>
  </g>
</svg>
