<?xml version="1.0" encoding="UTF-8" standalone="no"?>
<svg
   xmlns:dc="http://purl.org/dc/elements/1.1/"
   xmlns:cc="http://creativecommons.org/ns#"
   xmlns:rdf="http://www.w3.org/1999/02/22-rdf-syntax-ns#"
   xmlns:svg="http://www.w3.org/2000/svg"
   xmlns="http://www.w3.org/2000/svg"
   xmlns:xlink="http://www.w3.org/1999/xlink"
   xmlns:sodipodi="http://sodipodi.sourceforge.net/DTD/sodipodi-0.dtd"
   xmlns:inkscape="http://www.inkscape.org/namespaces/inkscape"
   height="66"
   width="420"
   version="1.1"
   id="svg10"
   sodipodi:docname="home_menu_multimedia.svg"
   inkscape:version="0.92.2 (5c3e80d, 2017-08-06)">
  <metadata
     id="metadata16">
    <rdf:RDF>
      <cc:Work
         rdf:about="">
        <dc:format>image/svg+xml</dc:format>
        <dc:type
           rdf:resource="http://purl.org/dc/dcmitype/StillImage" />
        <dc:title />
      </cc:Work>
    </rdf:RDF>
  </metadata>
  <defs
     id="defs14" />
  <sodipodi:namedview
     pagecolor="#ffffff"
     bordercolor="#666666"
     borderopacity="1"
     objecttolerance="10"
     gridtolerance="10"
     guidetolerance="10"
     inkscape:pageopacity="0"
     inkscape:pageshadow="2"
     inkscape:window-width="1477"
     inkscape:window-height="1017"
     id="namedview12"
     showgrid="false"
     showguides="true"
     inkscape:guide-bbox="true"
     inkscape:zoom="1.7233202"
     inkscape:cx="136.72049"
     inkscape:cy="94.379449"
     inkscape:window-x="0"
     inkscape:window-y="0"
     inkscape:window-maximized="0"
     inkscape:current-layer="layer2">
    <sodipodi:guide
       position="25,7"
       orientation="-0.70710678,0.70710678"
       id="guide853"
       inkscape:locked="false" />
  </sodipodi:namedview>
  <g
     inkscape:label="Original home_menu_multimedia_n"
     inkscape:groupmode="layer"
     sodipodi:insensitive="true"
     id="Original_home_menu_multimedia_n"
     style="display:none">
    <image
       sodipodi:absref="P:\tank\Projects\Chevy MyLink\theme\lcars\Multi Language\American English\home menu\../../../../BYOM/Multi Language/American English/home menu/home_menu_multimedia_n.png"
       xlink:href="../../../../BYOM/Multi Language/American English/home menu/home_menu_multimedia_n.png"
       x="0"
       y="0"
       height="66"
       width="253"
       id="image2" />
  </g>
  <g
     inkscape:label="Original home_menu_multimedia_p"
     inkscape:groupmode="layer"
     sodipodi:insensitive="true"
     id="Original_home_menu_multimedia_p"
     style="display:none">
    <image
       sodipodi:absref="P:\tank\Projects\Chevy MyLink\theme\lcars\Multi Language\American English\home menu\../../../../BYOM/Multi Language/American English/home menu/home_menu_multimedia_p.png"
       xlink:href="../../../../BYOM/Multi Language/American English/home menu/home_menu_multimedia_p.png"
       x="0"
       y="0"
       height="66"
       width="253"
       id="image5" />
  </g>
  <g
     inkscape:groupmode="layer"
     id="layer1"
     inkscape:label="Background">
    <rect
       style="opacity:1;fill:#000000;fill-opacity:1;fill-rule:evenodd;stroke:none;stroke-width:3;stroke-linecap:butt;stroke-linejoin:round;stroke-miterlimit:4;stroke-dasharray:none;stroke-opacity:1"
       id="rect824"
       width="395"
       height="66"
       x="25"
       y="0" />
  </g>
  <g
     inkscape:label="New home_menu_multimedia_n"
     inkscape:groupmode="layer"
     id="New_home_menu_multimedia_n">
    <path
       style="display:inline;opacity:1;fill:#6699cc;fill-opacity:1;fill-rule:evenodd;stroke:none;stroke-width:0;stroke-linecap:butt;stroke-linejoin:miter;stroke-miterlimit:4;stroke-dasharray:none;stroke-opacity:1"
       d="m 25,9 h 343 c 11.53046,0 24.74235,12.12229 25,23.90741 C 393.25765,44.69252 380.04539,59 368,59 H 25 Z"
       id="rect18"
       inkscape:connector-curvature="0"
       sodipodi:nodetypes="cszscc" />
  </g>
  <g
     inkscape:label="New home_menu_multimedia_p"
     inkscape:groupmode="layer"
     id="New_home_menu_multimedia_p"
     style="display:none">
    <path
       style="display:inline;opacity:1;fill:#93b7db;fill-opacity:1;fill-rule:evenodd;stroke:none;stroke-width:0;stroke-linecap:butt;stroke-linejoin:miter;stroke-miterlimit:4;stroke-dasharray:none;stroke-opacity:1"
       d="m 25,9 h 343 c 11.53047,0 24.74235,12.12229 25,23.90741 C 393.25765,44.69252 380.04539,59 368,59 H 25 Z"
       id="rect18-7"
       inkscape:connector-curvature="0"
       sodipodi:nodetypes="cszscc" />
  </g>
  <g
     inkscape:groupmode="layer"
     id="layer2"
     inkscape:label="Text">
    <g
       aria-label="Multimedia"
       style="font-style:normal;font-variant:normal;font-weight:normal;font-stretch:normal;font-size:37.33333206px;line-height:1.25;font-family:okuda;-inkscape-font-specification:okuda;letter-spacing:0px;word-spacing:0px;fill:#000000;fill-opacity:1;stroke:none"
       id="text851">
      <path
         d="M 33,51 V 26.390626 h 3.28125 l 3.664062,15.841145 3.445313,-15.841145 h 3.28125 V 51 H 43.9375 V 35.140626 L 41.203125,51 H 38.46875 L 35.734375,35.140626 V 51 Z"
         id="path828"
         inkscape:connector-curvature="0" />
      <path
         d="m 53.999999,31.859376 h 2.734375 V 51 H 53.999999 V 49.632813 Q 53.54427,51 52.177082,51 48.531249,51 48.531249,45.986979 V 31.859376 h 2.734375 v 15.039062 q 0,1.367187 1.367187,1.367187 1.367188,0 1.367188,-1.367187 z"
         id="path830"
         inkscape:connector-curvature="0" />
      <path
         d="M 58.59375,51 V 26.390626 h 2.734375 V 51 Z"
         id="path832"
         inkscape:connector-curvature="0" />
      <path
         d="m 67.744792,51 q -2.734375,0 -2.734375,-2.734375 V 34.593751 H 63.1875 v -2.734375 h 1.822917 v -2.734375 h 2.734375 v 2.734375 h 1.822916 v 2.734375 h -1.822916 v 12.760416 q 0,0.911458 1.093749,0.911458 h 0.729167 V 51 Z"
         id="path834"
         inkscape:connector-curvature="0" />
      <path
         d="M 71.427082,51 V 31.859376 h 2.734375 V 51 Z m 2.734375,-24.609374 v 2.734375 h -2.734375 v -2.734375 z"
         id="path836"
         inkscape:connector-curvature="0" />
      <path
         d="m 81.489582,35.960938 q 0,-1.367187 -1.367188,-1.367187 -1.367187,0 -1.367187,1.367187 V 51 H 76.020832 V 31.859376 h 2.734375 v 1.367187 q 0.455729,-1.367187 1.822917,-1.367187 1.367187,0 2.278645,1.367187 0.911459,-1.367187 2.278646,-1.367187 h 0.911458 q 3.645834,0 3.645834,5.01302 V 51 H 86.958332 V 35.960938 q 0,-1.367187 -1.367188,-1.367187 -1.367187,0 -1.367187,1.367187 V 51 h -2.734375 z"
         id="path838"
         inkscape:connector-curvature="0" />
      <path
         d="m 94.286457,42.796875 v 4.101563 q 0,1.367187 1.367187,1.367187 1.367188,0 1.367188,-1.367187 v -2.278646 h 2.734375 v 1.367187 Q 99.755207,51 96.109374,51 h -0.911459 q -3.645833,0 -3.645833,-5.013021 v -9.114583 q 0,-5.01302 3.645833,-5.01302 h 0.911459 q 3.645833,0 3.645833,5.01302 v 5.924479 z m 2.734375,-6.835937 q 0,-1.367187 -1.348958,-1.367187 -1.385417,0 -1.385417,1.367187 V 40.0625 h 2.734375 z"
         id="path840"
         inkscape:connector-curvature="0" />
      <path
         d="m 105.71614,48.265625 q 1.36719,0 1.36719,-1.367187 v -10.9375 q 0,-1.367187 -1.36719,-1.367187 -1.36719,0 -1.36719,1.367187 v 10.9375 q 0.0182,1.367187 1.36719,1.367187 z m -4.10156,-11.393229 q 0,-5.01302 3.64583,-5.01302 1.36719,0 1.82292,1.367187 v -6.835937 h 2.73437 V 51 h -2.73437 l 0.0182,-1.385417 Q 106.6276,51 105.27864,51 q -3.66406,0 -3.66406,-5.013021 z"
         id="path842"
         inkscape:connector-curvature="0" />
      <path
         d="M 111.67708,51 V 31.859376 h 2.73437 V 51 Z m 2.73437,-24.609374 v 2.734375 h -2.73437 v -2.734375 z"
         id="path844"
         inkscape:connector-curvature="0" />
      <path
         d="m 120.37239,48.265625 q 1.36719,0 1.36719,-1.367187 v -5.46875 q -0.45573,0.911458 -1.36719,0.911458 -1.36719,0 -1.36719,1.367188 v 3.190104 q 0.0182,1.367187 1.36719,1.367187 z m -4.10156,-3.645833 q 0,-5.46875 3.64583,-5.46875 1.36719,0 1.82292,-1.367187 v -1.822917 q 0,-1.367187 -1.29427,-1.367187 -1.44011,0 -1.44011,1.367187 v 1.367187 h -2.73437 v -0.911458 q 0,-4.557291 3.64583,-4.557291 h 0.91146 q 3.64583,0 3.64583,4.557291 V 51 h -2.73437 l 0.0182,-1.385417 Q 121.28385,51 119.93489,51 q -3.66406,0 -3.66406,-5.013021 z"
         id="path846"
         inkscape:connector-curvature="0" />
    </g>
  </g>
</svg>
