<?xml version="1.0" encoding="UTF-8" standalone="no"?>
<svg
   xmlns:dc="http://purl.org/dc/elements/1.1/"
   xmlns:cc="http://creativecommons.org/ns#"
   xmlns:rdf="http://www.w3.org/1999/02/22-rdf-syntax-ns#"
   xmlns:svg="http://www.w3.org/2000/svg"
   xmlns="http://www.w3.org/2000/svg"
   xmlns:xlink="http://www.w3.org/1999/xlink"
   xmlns:sodipodi="http://sodipodi.sourceforge.net/DTD/sodipodi-0.dtd"
   xmlns:inkscape="http://www.inkscape.org/namespaces/inkscape"
   height="66"
   width="420"
   version="1.1"
   id="svg10"
   sodipodi:docname="home_menu_batteryinfo.svg"
   inkscape:version="0.92.2 (5c3e80d, 2017-08-06)"
   inkscape:export-filename="P:\tank\Projects\Chevy MyLink\theme\lcars\home menu\home_menu_batteryinfo_n.png"
   inkscape:export-xdpi="96"
   inkscape:export-ydpi="96">
  <metadata
     id="metadata16">
    <rdf:RDF>
      <cc:Work
         rdf:about="">
        <dc:format>image/svg+xml</dc:format>
        <dc:type
           rdf:resource="http://purl.org/dc/dcmitype/StillImage" />
        <dc:title />
      </cc:Work>
    </rdf:RDF>
  </metadata>
  <defs
     id="defs14" />
  <sodipodi:namedview
     pagecolor="#ffffff"
     bordercolor="#666666"
     borderopacity="1"
     objecttolerance="10"
     gridtolerance="10"
     guidetolerance="10"
     inkscape:pageopacity="0"
     inkscape:pageshadow="2"
     inkscape:window-width="2054"
     inkscape:window-height="908"
     id="namedview12"
     showgrid="false"
     inkscape:zoom="3.3333334"
     inkscape:cx="184.54168"
     inkscape:cy="12.87235"
     inkscape:window-x="0"
     inkscape:window-y="0"
     inkscape:window-maximized="0"
     inkscape:current-layer="layer2"
     showguides="true"
     inkscape:guide-bbox="true">
    <sodipodi:guide
       position="25,7"
       orientation="-0.70710678,0.70710678"
       id="guide842"
       inkscape:locked="false" />
  </sodipodi:namedview>
  <g
     inkscape:label="Original home_menu_batteryinfo_n"
     inkscape:groupmode="layer"
     sodipodi:insensitive="true"
     id="Original_home_menu_batteryinfo_n"
     style="display:none">
    <image
       sodipodi:absref="P:\tank\Projects\Chevy MyLink\theme\lcars\Multi Language\American English\home menu\../.././../../BYOM/home menu/home_menu_batteryinfo_n.png"
       xlink:href="../.././../../BYOM/home menu/home_menu_batteryinfo_n.png"
       x="0"
       y="0"
       height="66"
       width="264"
       id="image2" />
  </g>
  <g
     inkscape:label="Original home_menu_batteryinfo_p"
     inkscape:groupmode="layer"
     sodipodi:insensitive="true"
     id="Original_home_menu_batteryinfo_p"
     style="display:none">
    <image
       sodipodi:absref="P:\tank\Projects\Chevy MyLink\theme\lcars\Multi Language\American English\home menu\../.././../../BYOM/home menu/home_menu_batteryinfo_p.png"
       xlink:href="../.././../../BYOM/home menu/home_menu_batteryinfo_p.png"
       x="0"
       y="0"
       height="66"
       width="264"
       id="image5" />
  </g>
  <g
     inkscape:groupmode="layer"
     id="layer1"
     inkscape:label="Background">
    <rect
       style="display:inline;opacity:1;fill:#000000;fill-opacity:1;fill-rule:evenodd;stroke:none;stroke-width:0;stroke-linecap:butt;stroke-linejoin:miter;stroke-miterlimit:4;stroke-dasharray:none;stroke-opacity:1"
       id="rect838"
       width="395"
       height="66"
       x="25"
       y="0" />
  </g>
  <g
     inkscape:label="New home_menu_batteryinfo_n"
     inkscape:groupmode="layer"
     id="New_home_menu_batteryinfo_n"
     style="display:inline">
    <path
       style="display:inline;opacity:1;fill:#17bf13;fill-opacity:1;fill-rule:evenodd;stroke:none;stroke-width:0;stroke-linecap:butt;stroke-linejoin:miter;stroke-miterlimit:4;stroke-dasharray:none;stroke-opacity:1"
       d="m 25,9 h 343 c 11.53046,0 24.74235,12.122291 25,23.907403 C 393.25765,44.692514 380.04539,59 368,59 H 25 Z"
       id="rect18"
       inkscape:connector-curvature="0"
       sodipodi:nodetypes="cszscc" />
  </g>
  <g
     inkscape:label="New home_menu_batteryinfo_p"
     inkscape:groupmode="layer"
     id="New_home_menu_batteryinfo_p"
     style="display:none">
    <path
       sodipodi:nodetypes="cszscc"
       inkscape:connector-curvature="0"
       id="use889"
       d="m 25,9 h 343 c 11.53046,0 24.74235,12.122291 25,23.907403 C 393.25765,44.692514 380.04539,59 368,59 H 25 Z"
       style="display:inline;opacity:1;fill:#4bed43;fill-opacity:1;fill-rule:evenodd;stroke:none;stroke-width:0;stroke-linecap:butt;stroke-linejoin:miter;stroke-miterlimit:4;stroke-dasharray:none;stroke-opacity:1" />
  </g>
  <g
     inkscape:groupmode="layer"
     id="layer2"
     inkscape:label="Text">
    <g
       aria-label="Electric Information"
       style="font-style:normal;font-variant:normal;font-weight:normal;font-stretch:normal;font-size:37.33333206px;line-height:1.25;font-family:okuda;-inkscape-font-specification:okuda;letter-spacing:0px;word-spacing:0px;display:inline;fill:#000000;fill-opacity:1;stroke:none"
       id="text840"
       transform="translate(6,-2)">
      <path
         d="M 27,53 V 28.390626 h 9.114583 v 2.752604 h -6.380208 v 8.184895 h 4.557291 V 42.0625 h -4.557291 v 8.203125 h 6.380208 V 53 Z"
         id="path844"
         inkscape:connector-curvature="0" />
      <path
         d="M 36.916666,53 V 28.390626 h 2.734375 V 53 Z"
         id="path846"
         inkscape:connector-curvature="0" />
      <path
         d="m 44.244791,44.796875 v 4.101563 q 0,1.367187 1.367187,1.367187 1.367188,0 1.367188,-1.367187 v -2.278646 h 2.734375 v 1.367187 Q 49.713541,53 46.067708,53 h -0.911459 q -3.645833,0 -3.645833,-5.013021 v -9.114583 q 0,-5.01302 3.645833,-5.01302 h 0.911459 q 3.645833,0 3.645833,5.01302 v 5.924479 z m 2.734375,-6.835937 q 0,-1.367187 -1.348958,-1.367187 -1.385417,0 -1.385417,1.367187 V 42.0625 h 2.734375 z"
         id="path848"
         inkscape:connector-curvature="0" />
      <path
         d="m 57.041666,46.619792 h 2.734375 v 1.367187 Q 59.776041,53 56.130208,53 h -0.911459 q -3.645833,0 -3.645833,-5.013021 v -9.114583 q 0,-5.01302 3.645833,-5.01302 h 0.911459 q 3.645833,0 3.645833,5.01302 v 1.367188 h -2.734375 v -2.278646 q 0,-1.367187 -1.348958,-1.367187 -1.385417,0 -1.385417,1.367187 v 10.9375 q 0,1.367187 1.367187,1.367187 1.367188,0 1.367188,-1.367187 z"
         id="path850"
         inkscape:connector-curvature="0" />
      <path
         d="m 65.171874,53 q -2.734375,0 -2.734375,-2.734375 V 36.593751 h -1.822917 v -2.734375 h 1.822917 v -2.734375 h 2.734375 v 2.734375 h 1.822916 v 2.734375 h -1.822916 v 12.760416 q 0,0.911458 1.09375,0.911458 H 66.99479 V 53 Z"
         id="path852"
         inkscape:connector-curvature="0" />
      <path
         d="M 71.588539,53 H 68.854164 V 33.859376 h 2.734375 v 1.367187 q 0.455729,-1.367187 1.822917,-1.367187 3.645833,0 3.645833,5.01302 h -2.734375 v -0.911458 q 0,-1.367187 -1.367188,-1.367187 -1.367187,0 -1.367187,1.367187 z"
         id="path854"
         inkscape:connector-curvature="0" />
      <path
         d="M 78.916664,53 V 33.859376 h 2.734375 V 53 Z m 2.734375,-24.609374 v 2.734375 h -2.734375 v -2.734375 z"
         id="path856"
         inkscape:connector-curvature="0" />
      <path
         d="m 88.979164,46.619792 h 2.734375 v 1.367187 Q 91.713539,53 88.067706,53 h -0.911459 q -3.645833,0 -3.645833,-5.013021 v -9.114583 q 0,-5.01302 3.645833,-5.01302 h 0.911459 q 3.645833,0 3.645833,5.01302 v 1.367188 h -2.734375 v -2.278646 q 0,-1.367187 -1.348958,-1.367187 -1.385417,0 -1.385417,1.367187 v 10.9375 q 0,1.367187 1.367187,1.367187 1.367188,0 1.367188,-1.367187 z"
         id="path858"
         inkscape:connector-curvature="0" />
      <path
         d="M 100.86458,53 V 28.390626 h 2.73437 V 53 Z"
         id="path860"
         inkscape:connector-curvature="0" />
      <path
         d="m 108.1927,53 h -2.73437 V 33.859376 h 2.73437 v 1.367187 q 0.45573,-1.367187 1.82292,-1.367187 3.64583,0 3.64583,5.01302 V 53 h -2.73437 V 37.960938 q 0,-1.367187 -1.36719,-1.367187 -1.36719,0 -1.36719,1.367187 z"
         id="path862"
         inkscape:connector-curvature="0" />
      <path
         d="m 120.88021,28.390626 v 2.734375 h -0.45573 q -1.36719,0 -1.36719,1.367187 v 1.367188 h 1.82292 v 2.734375 h -1.82292 V 53 h -2.73437 V 36.593751 H 114.5 v -2.734375 h 1.82292 v -0.455729 q 0,-5.013021 4.55729,-5.013021 z"
         id="path864"
         inkscape:connector-curvature="0" />
      <path
         d="m 125.10937,36.593751 q -1.38542,0 -1.38542,1.367187 v 10.9375 q 0,1.367187 1.36719,1.367187 1.36719,0 1.36719,-1.367187 v -10.9375 q 0,-1.367187 -1.34896,-1.367187 z m 4.08333,11.393228 Q 129.1927,53 125.54687,53 h -0.91146 q -3.64583,0 -3.64583,-5.013021 v -9.114583 q 0,-5.01302 3.64583,-5.01302 h 0.91146 q 3.64583,0 3.64583,5.01302 z"
         id="path866"
         inkscape:connector-curvature="0" />
      <path
         d="m 133.78645,53 h -2.73437 V 33.859376 h 2.73437 v 1.367187 q 0.45573,-1.367187 1.82292,-1.367187 3.64583,0 3.64583,5.01302 h -2.73437 v -0.911458 q 0,-1.367187 -1.36719,-1.367187 -1.36719,0 -1.36719,1.367187 z"
         id="path868"
         inkscape:connector-curvature="0" />
      <path
         d="m 145.5625,37.960938 q 0,-1.367187 -1.36719,-1.367187 -1.36719,0 -1.36719,1.367187 V 53 h -2.73437 V 33.859376 h 2.73437 v 1.367187 q 0.45573,-1.367187 1.82292,-1.367187 1.36719,0 2.27865,1.367187 0.91146,-1.367187 2.27864,-1.367187 h 0.91146 q 3.64583,0 3.64583,5.01302 V 53 h -2.73437 V 37.960938 q 0,-1.367187 -1.36719,-1.367187 -1.36719,0 -1.36719,1.367187 V 53 h -2.73437 z"
         id="path870"
         inkscape:connector-curvature="0" />
      <path
         d="m 159.72656,50.265625 q 1.36719,0 1.36719,-1.367187 v -5.46875 q -0.45573,0.911458 -1.36719,0.911458 -1.36719,0 -1.36719,1.367188 v 3.190104 q 0.0182,1.367187 1.36719,1.367187 z M 155.625,46.619792 q 0,-5.46875 3.64583,-5.46875 1.36719,0 1.82292,-1.367187 v -1.822917 q 0,-1.367187 -1.29427,-1.367187 -1.44011,0 -1.44011,1.367187 v 1.367187 H 155.625 v -0.911458 q 0,-4.557291 3.64583,-4.557291 h 0.91146 q 3.64583,0 3.64583,4.557291 V 53 h -2.73437 l 0.0182,-1.385417 Q 160.63802,53 159.28906,53 155.625,53 155.625,47.986979 Z"
         id="path872"
         inkscape:connector-curvature="0" />
      <path
         d="m 169.22395,53 q -2.73438,0 -2.73438,-2.734375 V 36.593751 h -1.82291 v -2.734375 h 1.82291 v -2.734375 h 2.73438 v 2.734375 h 1.82291 v 2.734375 h -1.82291 v 12.760416 q 0,0.911458 1.09375,0.911458 h 0.72916 V 53 Z"
         id="path874"
         inkscape:connector-curvature="0" />
      <path
         d="M 172.90625,53 V 33.859376 h 2.73437 V 53 Z m 2.73437,-24.609374 v 2.734375 h -2.73437 v -2.734375 z"
         id="path876"
         inkscape:connector-curvature="0" />
      <path
         d="m 181.61979,36.593751 q -1.38542,0 -1.38542,1.367187 v 10.9375 q 0,1.367187 1.36719,1.367187 1.36719,0 1.36719,-1.367187 v -10.9375 q 0,-1.367187 -1.34896,-1.367187 z m 4.08333,11.393228 Q 185.70312,53 182.05729,53 h -0.91146 Q 177.5,53 177.5,47.986979 v -9.114583 q 0,-5.01302 3.64583,-5.01302 h 0.91146 q 3.64583,0 3.64583,5.01302 z"
         id="path878"
         inkscape:connector-curvature="0" />
      <path
         d="M 190.29687,53 H 187.5625 V 33.859376 h 2.73437 v 1.367187 q 0.45573,-1.367187 1.82292,-1.367187 3.64583,0 3.64583,5.01302 V 53 h -2.73437 V 37.960938 q 0,-1.367187 -1.36719,-1.367187 -1.36719,0 -1.36719,1.367187 z"
         id="path880"
         inkscape:connector-curvature="0" />
    </g>
  </g>
</svg>
