<?xml version="1.0" encoding="UTF-8" standalone="no"?>
<svg
   xmlns:dc="http://purl.org/dc/elements/1.1/"
   xmlns:cc="http://creativecommons.org/ns#"
   xmlns:rdf="http://www.w3.org/1999/02/22-rdf-syntax-ns#"
   xmlns:svg="http://www.w3.org/2000/svg"
   xmlns="http://www.w3.org/2000/svg"
   xmlns:xlink="http://www.w3.org/1999/xlink"
   xmlns:sodipodi="http://sodipodi.sourceforge.net/DTD/sodipodi-0.dtd"
   xmlns:inkscape="http://www.inkscape.org/namespaces/inkscape"
   height="334"
   width="76"
   version="1.1"
   id="svg6"
   sodipodi:docname="bg_left.svg"
   inkscape:version="0.92.2 (5c3e80d, 2017-08-06)">
  <metadata
     id="metadata12">
    <rdf:RDF>
      <cc:Work
         rdf:about="">
        <dc:format>image/svg+xml</dc:format>
        <dc:type
           rdf:resource="http://purl.org/dc/dcmitype/StillImage" />
      </cc:Work>
    </rdf:RDF>
  </metadata>
  <defs
     id="defs10">
    <clipPath
       clipPathUnits="userSpaceOnUse"
       id="clipPath1036">
      <rect
         y="0"
         x="9.5923269e-014"
         height="334"
         width="76"
         id="rect1038"
         style="opacity:1;fill:#ffffff;fill-opacity:1;fill-rule:evenodd;stroke:none;stroke-width:4;stroke-linecap:butt;stroke-linejoin:miter;stroke-miterlimit:4;stroke-dasharray:none;stroke-opacity:1" />
    </clipPath>
  </defs>
  <sodipodi:namedview
     pagecolor="#ffffff"
     bordercolor="#666666"
     borderopacity="1"
     objecttolerance="10"
     gridtolerance="10"
     guidetolerance="10"
     inkscape:pageopacity="0"
     inkscape:pageshadow="2"
     inkscape:window-width="1449"
     inkscape:window-height="706"
     id="namedview8"
     showgrid="false"
     inkscape:zoom="0.70658683"
     inkscape:cx="173.98582"
     inkscape:cy="223.01471"
     inkscape:window-x="0"
     inkscape:window-y="0"
     inkscape:window-maximized="0"
     inkscape:current-layer="New_bg_left" />
  <g
     inkscape:label="Original bg_left"
     inkscape:groupmode="layer"
     sodipodi:insensitive="true"
     id="Original_bg_left">
    <image
       sodipodi:absref="P:\tank\Projects\Chevy MyLink\theme\lcars\Bev\Battery Information\../../../BYOM/Bev/Battery Information/bg_left.bmp"
       xlink:href="../../../BYOM/Bev/Battery Information/bg_left.bmp"
       x="0"
       y="0"
       height="334"
       width="76"
       id="image2" />
  </g>
  <g
     inkscape:label="New bg_left"
     inkscape:groupmode="layer"
     id="New_bg_left">
    <rect
       style="opacity:1;fill:#000000;fill-opacity:1;fill-rule:evenodd;stroke:none;stroke-width:0.35800001;stroke-linecap:round;stroke-linejoin:round;stroke-miterlimit:4;stroke-dasharray:none;stroke-opacity:1"
       id="rect4511"
       width="76"
       height="334"
       x="0"
       y="0" />
    <g
       id="g5630"
       clip-path="url(#clipPath1036)">
      <g
         id="g5523">
        <path
           style="opacity:1;fill:#9a99ff;fill-opacity:1;fill-rule:evenodd;stroke:#000000;stroke-width:4;stroke-linecap:butt;stroke-linejoin:miter;stroke-miterlimit:4;stroke-dasharray:none;stroke-opacity:1"
           d="m 0,-0.04913125 267,0.0982625 V 11.925105 l -101.85394,0.14979 C 144.33265,12.105504 135,20.256735 135,28.176323 V 87 H 0 Z"
           id="rect1156"
           inkscape:connector-curvature="0"
           sodipodi:nodetypes="cccssccc" />
        <path
           style="opacity:1;fill:#ffcc9b;fill-opacity:1;fill-rule:evenodd;stroke:#000000;stroke-width:4;stroke-linecap:butt;stroke-linejoin:miter;stroke-miterlimit:4;stroke-dasharray:none;stroke-opacity:1"
           d="m 0,179 h 135 v 52 H 0 Z"
           id="rect1169"
           inkscape:connector-curvature="0"
           sodipodi:nodetypes="ccccc" />
        <g
           aria-label="NCC1701D"
           style="font-style:normal;font-variant:normal;font-weight:normal;font-stretch:normal;font-size:48px;line-height:1.25;font-family:Okuda;-inkscape-font-specification:Okuda;letter-spacing:0px;word-spacing:0px;fill:#000000;fill-opacity:1;stroke:none"
           id="text1173"
           transform="translate(9.380548,39.109539)">
          <path
             d="M 21.213202,39.843586 V 8.202961 h 4.21875 l 5.15625,21.796875 V 8.202961 h 3.515625 v 31.640625 h -4.21875 l -5.15625,-20.390625 v 20.390625 z"
             id="path1175"
             inkscape:connector-curvature="0"
             style="fill:#000000" />
          <path
             d="m 44.697577,31.640461 h 3.515625 v 1.757812 q 0,6.445313 -4.6875,6.445313 h -2.34375 q -4.6875,0 -4.6875,-6.445313 v -18.75 q 0,-6.445312 4.6875,-6.445312 h 2.34375 q 4.6875,0 4.6875,6.445312 v 1.757813 h -3.515625 v -2.929688 q 0,-1.757812 -1.757813,-1.757812 h -1.171875 q -1.757812,0 -1.757812,1.757812 v 21.09375 q 0,1.757813 1.757812,1.757813 h 1.171875 q 1.757813,0 1.757813,-1.757813 z"
             id="path1177"
             inkscape:connector-curvature="0"
             style="fill:#000000" />
          <path
             d="m 58.760077,31.640461 h 3.515625 v 1.757812 q 0,6.445313 -4.6875,6.445313 h -2.34375 q -4.6875,0 -4.6875,-6.445313 v -18.75 q 0,-6.445312 4.6875,-6.445312 h 2.34375 q 4.6875,0 4.6875,6.445312 v 1.757813 h -3.515625 v -2.929688 q 0,-1.757812 -1.757813,-1.757812 h -1.171875 q -1.757812,0 -1.757812,1.757812 v 21.09375 q 0,1.757813 1.757812,1.757813 h 1.171875 q 1.757813,0 1.757813,-1.757813 z"
             id="path1180"
             inkscape:connector-curvature="0"
             style="fill:#000000" />
          <path
             d="m 66.728827,39.843586 v -25.3125 h -2.109375 v -3.515625 q 2.109375,0 2.109375,-2.8125 h 3.515625 v 31.640625 z"
             id="path1182"
             inkscape:connector-curvature="0"
             style="fill:#000000" />
          <path
             d="m 81.025702,11.695148 -8.4375,0.02344 V 8.202961 h 11.953125 v 4.898437 l -6.328125,26.742188 h -3.515625 z"
             id="path1184"
             inkscape:connector-curvature="0"
             style="fill:#000000" />
          <path
             d="m 92.228827,11.718586 q -1.78125,0 -1.78125,1.757812 v 21.09375 q 0,1.757813 1.78125,1.757813 1.734375,0 1.734375,-1.757813 v -21.09375 q 0,-1.757812 -1.734375,-1.757812 z m 5.25,21.679687 q 0,6.445313 -4.6875,6.445313 h -1.171875 q -4.6875,0 -4.6875,-6.445313 v -18.75 q 0,-6.445312 4.6875,-6.445312 h 1.171875 q 4.6875,0 4.6875,6.445312 z"
             id="path1188"
             inkscape:connector-curvature="0"
             style="fill:#000000" />
          <path
             d="m 101.97883,39.843586 v -25.3125 h -2.109378 v -3.515625 q 2.109378,0 2.109378,-2.8125 h 3.51562 v 31.640625 z"
             id="path1191"
             inkscape:connector-curvature="0"
             style="fill:#000000" />
          <path
             d="m 114.28351,36.327961 q 1.75782,0 1.75782,-1.757813 v -21.09375 q 0,-1.757812 -1.73438,-1.757812 h -2.95312 v 24.609375 z m 5.27344,-2.929688 q 0,6.445313 -4.6875,6.445313 H 107.8382 V 8.202961 h 7.03125 q 4.6875,0 4.6875,6.445312 z"
             id="path1193"
             inkscape:connector-curvature="0"
             style="fill:#000000" />
        </g>
        <g
           aria-label="Diagnostic"
           style="font-style:normal;font-variant:normal;font-weight:normal;font-stretch:normal;font-size:26.66666603px;line-height:1.25;font-family:okuda;-inkscape-font-specification:okuda;letter-spacing:0px;word-spacing:0px;fill:#000000;fill-opacity:1;stroke:none"
           id="text1198"
           transform="translate(-2.947273,-23.535534)">
          <path
             d="m 74.715502,243.90244 q 0.976563,0 0.976563,-0.97657 v -11.71875 q 0,-0.97656 -0.963542,-0.97656 h -1.640625 v 13.67188 z m 2.929688,-1.62761 q 0,3.58073 -2.604167,3.58073 h -3.90625 v -17.57812 h 3.90625 q 2.604167,0 2.604167,3.58072 z"
             id="path1203"
             inkscape:connector-curvature="0" />
          <path
             d="m 78.947273,245.85556 v -13.67187 h 1.953125 v 13.67187 z m 1.953125,-17.57812 v 1.95312 h -1.953125 v -1.95312 z"
             id="path1205"
             inkscape:connector-curvature="0" />
          <path
             d="m 85.158211,243.90244 q 0.976562,0 0.976562,-0.97657 v -3.90625 q -0.325521,0.65104 -0.976562,0.65104 -0.976563,0 -0.976563,0.97657 v 2.27864 q 0.01302,0.97657 0.976563,0.97657 z m -2.929688,-2.60417 q 0,-3.90625 2.604167,-3.90625 0.976562,0 1.302083,-0.97656 v -1.30209 q 0,-0.97656 -0.924479,-0.97656 -1.028646,0 -1.028646,0.97656 v 0.97657 h -1.953125 v -0.65105 q 0,-3.2552 2.604167,-3.2552 h 0.651042 q 2.604166,0 2.604166,3.2552 v 10.41667 h -1.953125 l 0.01302,-0.98958 q -0.338542,0.98958 -1.302083,0.98958 -2.617188,0 -2.617188,-3.58073 z"
             id="path1207"
             inkscape:connector-curvature="0" />
          <path
             d="m 92.345711,243.90244 q 0.976562,0 0.976562,-0.97657 v -7.8125 q 0,-0.97656 -0.989583,-0.97656 -0.963542,0 -0.963542,0.97656 v 7.8125 q 0,0.97657 0.976563,0.97657 z m -2.929688,-8.13803 q 0,-3.58072 2.734375,-3.58072 0.846354,0 1.171875,1.10677 v -1.10677 h 1.953125 v 14.64843 q 0,3.58073 -2.604166,3.58073 l -0.651042,-0.013 q -2.604167,0 -2.604167,-3.56771 h 1.953125 v 0.65104 q 0,0.97657 0.976563,0.97657 0.976562,0 0.976562,-0.97657 V 244.879 q -0.325521,0.97656 -1.302083,0.97656 -2.604167,0 -2.604167,-3.58073 z"
             id="path1209"
             inkscape:connector-curvature="0" />
          <path
             d="m 98.556648,245.85556 h -1.953125 v -13.67187 h 1.953125 v 0.97656 q 0.325521,-0.97656 1.302084,-0.97656 2.604168,0 2.604168,3.58072 v 10.09115 h -1.95313 v -10.74219 q 0,-0.97656 -0.976559,-0.97656 -0.976563,0 -0.976563,0.97656 z"
             id="path1212"
             inkscape:connector-curvature="0" />
          <path
             d="m 106.73373,234.13681 q -0.98958,0 -0.98958,0.97656 v 7.8125 q 0,0.97657 0.97656,0.97657 0.97656,0 0.97656,-0.97657 v -7.8125 q 0,-0.97656 -0.96354,-0.97656 z m 2.91667,8.13802 q 0,3.58073 -2.60417,3.58073 h -0.65104 q -2.60417,0 -2.60417,-3.58073 v -6.51042 q 0,-3.58072 2.60417,-3.58072 h 0.65104 q 2.60417,0 2.60417,3.58072 z"
             id="path1214"
             inkscape:connector-curvature="0" />
          <path
             d="m 112.93165,235.43889 q 0,1.04167 1.95312,3.29427 1.95313,2.23959 1.95313,3.54167 v 0.32552 q 0,3.25521 -2.60417,3.25521 h -0.65104 q -2.60417,0 -2.60417,-3.25521 v -0.65104 h 1.95313 v 0.97656 q 0,0.97657 0.97656,0.97657 0.97656,0 0.97656,-0.97657 v -0.32552 q 0,-0.71614 -1.95312,-3.15104 -1.95313,-2.44792 -1.95313,-3.6849 v -0.32552 q 0,-3.2552 2.60417,-3.2552 h 0.65104 q 2.60417,0 2.60417,3.2552 v 0.65105 h -1.95313 v -0.97657 q 0,-0.97656 -0.96354,-0.97656 -0.98958,0 -0.98958,0.97656 z"
             id="path1216"
             inkscape:connector-curvature="0" />
          <path
             d="m 120.69206,245.85556 q -1.95312,0 -1.95312,-1.95312 v -9.76563 h -1.30208 v -1.95312 h 1.30208 v -1.95313 h 1.95312 v 1.95313 h 1.30209 v 1.95312 h -1.30209 v 9.11458 q 0,0.65105 0.78125,0.65105 h 0.52084 v 1.95312 z"
             id="path1218"
             inkscape:connector-curvature="0" />
          <path
             d="m 123.32227,245.85556 v -13.67187 h 1.95313 v 13.67187 z m 1.95313,-17.57812 v 1.95312 h -1.95313 v -1.95312 z"
             id="path1220"
             inkscape:connector-curvature="0" />
          <path
             d="m 130.50977,241.29827 h 1.95313 v 0.97656 q 0,3.58073 -2.60417,3.58073 h -0.65104 q -2.60417,0 -2.60417,-3.58073 v -6.51042 q 0,-3.58072 2.60417,-3.58072 h 0.65104 q 2.60417,0 2.60417,3.58072 v 0.97657 h -1.95313 v -1.62761 q 0,-0.97656 -0.96354,-0.97656 -0.98958,0 -0.98958,0.97656 v 7.8125 q 0,0.97657 0.97656,0.97657 0.97656,0 0.97656,-0.97657 z"
             id="path1222"
             inkscape:connector-curvature="0" />
        </g>
        <path
           style="opacity:1;fill:#9a99ff;fill-opacity:1;fill-rule:evenodd;stroke:#000000;stroke-width:4;stroke-linecap:butt;stroke-linejoin:miter;stroke-miterlimit:4;stroke-dasharray:none;stroke-opacity:1"
           d="m 0,87 h 135 v 15 H 0 Z"
           id="rect1225"
           inkscape:connector-curvature="0"
           sodipodi:nodetypes="ccccc" />
        <path
           style="opacity:1;fill:#ffcc9b;fill-opacity:1;fill-rule:evenodd;stroke:#000000;stroke-width:4;stroke-linecap:butt;stroke-linejoin:miter;stroke-miterlimit:4;stroke-dasharray:none;stroke-opacity:1"
           d="m 0,164 h 135 v 15 H 0 Z"
           id="rect1252"
           inkscape:connector-curvature="0"
           sodipodi:nodetypes="ccccc" />
        <path
           style="opacity:1;fill:#cb99cc;fill-opacity:1;fill-rule:evenodd;stroke:#000000;stroke-width:4;stroke-linecap:butt;stroke-linejoin:miter;stroke-miterlimit:4;stroke-dasharray:none;stroke-opacity:1"
           d="m 0,252 h 135 v 20 H 0 Z"
           id="rect1254"
           inkscape:connector-curvature="0"
           sodipodi:nodetypes="ccccc" />
        <path
           style="opacity:1;fill:#cb99cc;fill-opacity:1;fill-rule:evenodd;stroke:#000000;stroke-width:4;stroke-linecap:butt;stroke-linejoin:miter;stroke-miterlimit:4;stroke-dasharray:none;stroke-opacity:1"
           d="m 0,314 h 135 v 20 H 0 Z"
           id="rect1258"
           inkscape:connector-curvature="0"
           sodipodi:nodetypes="ccccc" />
        <path
           style="opacity:1;fill:#cb99cc;fill-opacity:1;fill-rule:evenodd;stroke:#000000;stroke-width:4;stroke-linecap:butt;stroke-linejoin:miter;stroke-miterlimit:4;stroke-dasharray:none;stroke-opacity:1"
           d="m 0,272 h 135 v 20 H 0 Z"
           id="rect1269"
           inkscape:connector-curvature="0"
           sodipodi:nodetypes="ccccc" />
        <g
           aria-label="Health Overview"
           style="font-style:normal;font-variant:normal;font-weight:normal;font-stretch:normal;font-size:13.33333302px;line-height:1.25;font-family:okuda;-inkscape-font-specification:okuda;letter-spacing:0px;word-spacing:0px;fill:#000000;fill-opacity:1;stroke:none"
           id="text1287">
          <path
             d="m 80.5,267 v -8.78906 h 0.976562 v 3.58073 h 1.302084 v -3.58073 h 0.976562 V 267 h -0.976562 v -4.23177 H 81.476562 V 267 Z"
             id="path5264"
             inkscape:connector-curvature="0" />
          <path
             d="m 85.382812,264.07031 v 1.46485 q 0,0.48828 0.488282,0.48828 0.488281,0 0.488281,-0.48828 v -0.81381 h 0.976562 v 0.48829 q 0,1.79036 -1.302083,1.79036 h -0.325521 q -1.302083,0 -1.302083,-1.79036 v -3.25521 q 0,-1.79037 1.302083,-1.79037 h 0.325521 q 1.302083,0 1.302083,1.79037 v 2.11588 z m 0.976563,-2.4414 q 0,-0.48828 -0.481771,-0.48828 -0.494792,0 -0.494792,0.48828 v 1.46484 h 0.976563 z"
             id="path5266"
             inkscape:connector-curvature="0" />
          <path
             d="m 89.464844,266.02344 q 0.488281,0 0.488281,-0.48828 v -1.95313 q -0.16276,0.32552 -0.488281,0.32552 -0.488282,0 -0.488282,0.48828 v 1.13933 q 0.0065,0.48828 0.488282,0.48828 z M 88,264.72135 q 0,-1.95312 1.302083,-1.95312 0.488282,0 0.651042,-0.48828 v -0.65104 q 0,-0.48828 -0.46224,-0.48828 -0.514323,0 -0.514323,0.48828 v 0.48828 H 88 v -0.32552 q 0,-1.62761 1.302083,-1.62761 h 0.325521 q 1.302083,0 1.302083,1.62761 V 267 h -0.976562 l 0.0065,-0.49479 Q 89.790365,267 89.308594,267 88,267 88,265.20964 Z"
             id="path5268"
             inkscape:connector-curvature="0" />
          <path
             d="m 91.59375,267 v -8.78906 h 0.976562 V 267 Z"
             id="path5270"
             inkscape:connector-curvature="0" />
          <path
             d="m 94.861979,267 q -0.976562,0 -0.976562,-0.97656 v -4.88281 h -0.651042 v -0.97657 h 0.651042 v -0.97656 h 0.976562 v 0.97656 h 0.651042 v 0.97657 h -0.651042 v 4.55729 q 0,0.32552 0.390625,0.32552 h 0.260417 V 267 Z"
             id="path5272"
             inkscape:connector-curvature="0" />
          <path
             d="m 97.153645,267 h -0.976562 v -8.78906 h 0.976562 v 2.4414 q 0.162761,-0.48828 0.651042,-0.48828 1.302083,0 1.302083,1.79037 V 267 h -0.976562 v -5.37109 q 0,-0.48828 -0.488281,-0.48828 -0.488282,0 -0.488282,0.48828 z"
             id="path5274"
             inkscape:connector-curvature="0" />
          <path
             d="m 104.16536,259.1875 h -0.32552 q -0.48828,0 -0.48828,0.48828 v 5.85938 q 0,0.48828 0.48828,0.48828 h 0.32552 q 0.48829,0 0.48829,-0.48828 v -5.85938 q 0,-0.48828 -0.48829,-0.48828 z m 1.46485,6.02214 q 0,1.79036 -1.30209,1.79036 h -0.65104 q -1.30208,0 -1.30208,-1.79036 v -5.20834 q 0,-1.79036 1.30208,-1.79036 h 0.65104 q 1.30209,0 1.30209,1.79036 z"
             id="path5276"
             inkscape:connector-curvature="0" />
          <path
             d="m 107.30339,260.16406 0.67057,4.34896 0.65104,-4.34896 h 1.02214 L 108.42969,267 h -0.97657 l -1.17187,-6.83594 z"
             id="path5278"
             inkscape:connector-curvature="0" />
          <path
             d="m 110.82552,264.07031 v 1.46485 q 0,0.48828 0.48828,0.48828 0.48828,0 0.48828,-0.48828 v -0.81381 h 0.97656 v 0.48829 q 0,1.79036 -1.30208,1.79036 h -0.32552 q -1.30208,0 -1.30208,-1.79036 v -3.25521 q 0,-1.79037 1.30208,-1.79037 h 0.32552 q 1.30208,0 1.30208,1.79037 v 2.11588 z m 0.97656,-2.4414 q 0,-0.48828 -0.48177,-0.48828 -0.49479,0 -0.49479,0.48828 v 1.46484 h 0.97656 z"
             id="path5280"
             inkscape:connector-curvature="0" />
          <path
             d="m 114.41927,267 h -0.97656 v -6.83594 h 0.97656 v 0.48828 q 0.16276,-0.48828 0.65104,-0.48828 1.30208,0 1.30208,1.79037 h -0.97656 v -0.32552 q 0,-0.48828 -0.48828,-0.48828 -0.48828,0 -0.48828,0.48828 z"
             id="path5282"
             inkscape:connector-curvature="0" />
          <path
             d="m 117.69401,260.16406 0.67057,4.34896 0.65104,-4.34896 h 1.02214 L 118.82031,267 h -0.97656 l -1.17187,-6.83594 z"
             id="path5284"
             inkscape:connector-curvature="0" />
          <path
             d="m 120.68229,267 v -6.83594 h 0.97656 V 267 Z m 0.97656,-8.78906 v 0.97656 h -0.97656 v -0.97656 z"
             id="path5286"
             inkscape:connector-curvature="0" />
          <path
             d="m 123.29948,264.07031 v 1.46485 q 0,0.48828 0.48828,0.48828 0.48828,0 0.48828,-0.48828 v -0.81381 h 0.97656 v 0.48829 Q 125.2526,267 123.95052,267 H 123.625 q -1.30209,0 -1.30209,-1.79036 v -3.25521 q 0,-1.79037 1.30209,-1.79037 h 0.32552 q 1.30208,0 1.30208,1.79037 v 2.11588 z m 0.97656,-2.4414 q 0,-0.48828 -0.48177,-0.48828 -0.49479,0 -0.49479,0.48828 v 1.46484 h 0.97656 z"
             id="path5288"
             inkscape:connector-curvature="0" />
          <path
             d="m 126.57422,260.16406 0.45573,4.1862 0.47526,-4.1862 h 1.02213 l 0.45573,4.1862 0.47526,-4.1862 h 0.97656 L 129.45833,267 h -0.97656 L 128,263.82292 127.50521,267 h -0.97657 l -0.97656,-6.83594 z"
             id="path5290"
             inkscape:connector-curvature="0" />
        </g>
        <path
           style="opacity:1;fill:#cb99cc;fill-opacity:1;fill-rule:evenodd;stroke:#000000;stroke-width:4;stroke-linecap:butt;stroke-linejoin:miter;stroke-miterlimit:4;stroke-dasharray:none;stroke-opacity:1"
           d="m 0,292 h 135 v 22 H 0 Z"
           id="rect1289"
           inkscape:connector-curvature="0"
           sodipodi:nodetypes="ccccc" />
        <g
           aria-label="Scanner Status"
           style="font-style:normal;font-variant:normal;font-weight:normal;font-stretch:normal;font-size:13.33333302px;line-height:1.25;font-family:okuda;-inkscape-font-specification:okuda;letter-spacing:0px;word-spacing:0px;fill:#000000;fill-opacity:1;stroke:none"
           id="text1293">
          <path
             d="m 83.92646,280.79249 q 0,0.65104 1.139323,1.54948 1.139323,0.89193 1.139323,1.70573 v 1.13932 q 0,1.79037 -1.302083,1.79037 h -0.651042 q -1.302083,0 -1.302083,-1.79037 v -0.48828 h 0.976562 v 0.8138 q 0,0.48828 0.488281,0.48828 h 0.325521 q 0.488282,0 0.488282,-0.48828 v -1.30208 q 0,-0.65104 -1.139323,-1.54297 -1.139323,-0.89844 -1.139323,-1.74479 v -0.94401 q 0,-1.79037 1.302083,-1.79037 h 0.651042 q 1.302083,0 1.302083,1.79037 v 0.48828 h -0.976562 v -0.8138 q 0,-0.48828 -0.488282,-0.48828 h -0.325521 q -0.488281,0 -0.488281,0.48828 z"
             id="path5237"
             inkscape:connector-curvature="0" />
          <path
             d="m 88.809273,284.69874 h 0.976562 v 0.48828 q 0,1.79037 -1.302083,1.79037 h -0.325521 q -1.302083,0 -1.302083,-1.79037 v -3.25521 q 0,-1.79036 1.302083,-1.79036 h 0.325521 q 1.302083,0 1.302083,1.79036 v 0.48828 h -0.976562 v -0.8138 q 0,-0.48828 -0.481771,-0.48828 -0.494792,0 -0.494792,0.48828 v 3.90625 q 0,0.48828 0.488281,0.48828 0.488282,0 0.488282,-0.48828 z"
             id="path5239"
             inkscape:connector-curvature="0" />
          <path
             d="m 91.914741,286.00082 q 0.488282,0 0.488282,-0.48828 v -1.95312 q -0.162761,0.32552 -0.488282,0.32552 -0.488281,0 -0.488281,0.48828 v 1.13932 q 0.0065,0.48828 0.488281,0.48828 z m -1.464843,-1.30208 q 0,-1.95312 1.302083,-1.95312 0.488281,0 0.651042,-0.48829 v -0.65104 q 0,-0.48828 -0.46224,-0.48828 -0.514323,0 -0.514323,0.48828 v 0.48828 h -0.976562 v -0.32552 q 0,-1.6276 1.302083,-1.6276 h 0.325521 q 1.302083,0 1.302083,1.6276 v 5.20834 h -0.976562 l 0.0065,-0.4948 q -0.169271,0.4948 -0.651042,0.4948 -1.308593,0 -1.308593,-1.79037 z"
             id="path5241"
             inkscape:connector-curvature="0" />
          <path
             d="m 95.02021,286.97739 h -0.976562 v -6.83594 h 0.976562 v 0.48828 q 0.162761,-0.48828 0.651042,-0.48828 1.302083,0 1.302083,1.79036 v 5.04558 h -0.976562 v -5.3711 q 0,-0.48828 -0.488282,-0.48828 -0.488281,0 -0.488281,0.48828 z"
             id="path5243"
             inkscape:connector-curvature="0" />
          <path
             d="m 98.61396,286.97739 h -0.976562 v -6.83594 h 0.976562 v 0.48828 q 0.162761,-0.48828 0.651042,-0.48828 1.302088,0 1.302088,1.79036 v 5.04558 h -0.976567 v -5.3711 q 0,-0.48828 -0.488282,-0.48828 -0.488281,0 -0.488281,0.48828 z"
             id="path5245"
             inkscape:connector-curvature="0" />
          <path
             d="m 102.20771,284.0477 v 1.46484 q 0,0.48828 0.48828,0.48828 0.48828,0 0.48828,-0.48828 v -0.8138 h 0.97657 v 0.48828 q 0,1.79037 -1.30209,1.79037 h -0.32552 q -1.30208,0 -1.30208,-1.79037 v -3.25521 q 0,-1.79036 1.30208,-1.79036 h 0.32552 q 1.30209,0 1.30209,1.79036 v 2.11589 z m 0.97656,-2.44141 q 0,-0.48828 -0.48177,-0.48828 -0.49479,0 -0.49479,0.48828 v 1.46485 h 0.97656 z"
             id="path5247"
             inkscape:connector-curvature="0" />
          <path
             d="m 105.80146,286.97739 h -0.97656 v -6.83594 h 0.97656 v 0.48828 q 0.16276,-0.48828 0.65104,-0.48828 1.30209,0 1.30209,1.79036 h -0.97657 v -0.32552 q 0,-0.48828 -0.48828,-0.48828 -0.48828,0 -0.48828,0.48828 z"
             id="path5249"
             inkscape:connector-curvature="0" />
          <path
             d="m 111.99938,280.79249 q 0,0.65104 1.13932,1.54948 1.13932,0.89193 1.13932,1.70573 v 1.13932 q 0,1.79037 -1.30208,1.79037 h -0.65104 q -1.30209,0 -1.30209,-1.79037 v -0.48828 h 0.97657 v 0.8138 q 0,0.48828 0.48828,0.48828 h 0.32552 q 0.48828,0 0.48828,-0.48828 v -1.30208 q 0,-0.65104 -1.13932,-1.54297 -1.13933,-0.89844 -1.13933,-1.74479 v -0.94401 q 0,-1.79037 1.30209,-1.79037 h 0.65104 q 1.30208,0 1.30208,1.79037 v 0.48828 h -0.97656 v -0.8138 q 0,-0.48828 -0.48828,-0.48828 h -0.32552 q -0.48828,0 -0.48828,0.48828 z"
             id="path5251"
             inkscape:connector-curvature="0" />
          <path
             d="m 116.55667,286.97739 q -0.97656,0 -0.97656,-0.97657 v -4.88281 h -0.65105 v -0.97656 h 0.65105 v -0.97656 h 0.97656 v 0.97656 h 0.65104 v 0.97656 h -0.65104 v 4.55729 q 0,0.32552 0.39062,0.32552 h 0.26042 v 0.97657 z"
             id="path5253"
             inkscape:connector-curvature="0" />
          <path
             d="m 119.33662,286.00082 q 0.48828,0 0.48828,-0.48828 v -1.95312 q -0.16276,0.32552 -0.48828,0.32552 -0.48828,0 -0.48828,0.48828 v 1.13932 q 0.007,0.48828 0.48828,0.48828 z m -1.46485,-1.30208 q 0,-1.95312 1.30209,-1.95312 0.48828,0 0.65104,-0.48829 v -0.65104 q 0,-0.48828 -0.46224,-0.48828 -0.51432,0 -0.51432,0.48828 v 0.48828 h -0.97657 v -0.32552 q 0,-1.6276 1.30209,-1.6276 h 0.32552 q 1.30208,0 1.30208,1.6276 v 5.20834 h -0.97656 l 0.007,-0.4948 q -0.16927,0.4948 -0.65104,0.4948 -1.3086,0 -1.3086,-1.79037 z"
             id="path5255"
             inkscape:connector-curvature="0" />
          <path
             d="m 122.72854,286.97739 q -0.97656,0 -0.97656,-0.97657 v -4.88281 h -0.65104 v -0.97656 h 0.65104 v -0.97656 h 0.97656 v 0.97656 h 0.65105 v 0.97656 h -0.65105 v 4.55729 q 0,0.32552 0.39063,0.32552 h 0.26042 v 0.97657 z"
             id="path5257"
             inkscape:connector-curvature="0" />
          <path
             d="m 125.99677,280.14145 h 0.97657 v 6.83594 h -0.97657 v -0.48828 q -0.16276,0.48828 -0.65104,0.48828 -1.30208,0 -1.30208,-1.79037 v -5.04557 h 0.97656 v 5.37109 q 0,0.48828 0.48828,0.48828 0.48828,0 0.48828,-0.48828 z"
             id="path5259"
             inkscape:connector-curvature="0" />
          <path
             d="m 128.61396,281.76905 q 0,0.52084 0.97656,1.64714 0.97657,1.11979 0.97657,1.77083 v 0.16276 q 0,1.62761 -1.30209,1.62761 h -0.32552 q -1.30208,0 -1.30208,-1.62761 v -0.32552 h 0.97656 v 0.48828 q 0,0.48828 0.48828,0.48828 0.48828,0 0.48828,-0.48828 v -0.16276 q 0,-0.35807 -0.97656,-1.57552 -0.97656,-1.22396 -0.97656,-1.84245 v -0.16276 q 0,-1.6276 1.30208,-1.6276 h 0.32552 q 1.30209,0 1.30209,1.6276 v 0.32552 h -0.97657 v -0.48828 q 0,-0.48828 -0.48177,-0.48828 -0.49479,0 -0.49479,0.48828 z"
             id="path5261"
             inkscape:connector-curvature="0" />
        </g>
        <g
           aria-label="Core Temp"
           style="font-style:normal;font-variant:normal;font-weight:normal;font-stretch:normal;font-size:13.33333302px;line-height:1.25;font-family:okuda;-inkscape-font-specification:okuda;letter-spacing:0px;word-spacing:0px;fill:#000000;fill-opacity:1;stroke:none"
           id="text1273">
          <path
             d="m 101.27865,326.80674 h 0.97656 v 0.48828 q 0,1.79037 -1.30209,1.79037 h -0.65104 Q 99,329.08539 99,327.29502 v -5.20833 q 0,-1.79036 1.30208,-1.79036 h 0.65104 q 1.30209,0 1.30209,1.79036 v 0.48828 h -0.97656 v -0.8138 q 0,-0.48828 -0.48829,-0.48828 h -0.32552 q -0.488278,0 -0.488278,0.48828 v 5.85937 q 0,0.48829 0.488278,0.48829 h 0.32552 q 0.48829,0 0.48829,-0.48829 z"
             id="path5193"
             inkscape:connector-curvature="0" />
          <path
             d="m 104.01302,323.22601 q -0.49479,0 -0.49479,0.48828 v 3.90625 q 0,0.48829 0.48828,0.48829 0.48828,0 0.48828,-0.48829 v -3.90625 q 0,-0.48828 -0.48177,-0.48828 z m 1.45833,4.06901 q 0,1.79037 -1.30208,1.79037 h -0.32552 q -1.30208,0 -1.30208,-1.79037 v -3.2552 q 0,-1.79037 1.30208,-1.79037 h 0.32552 q 1.30208,0 1.30208,1.79037 z"
             id="path5195"
             inkscape:connector-curvature="0" />
          <path
             d="m 107.11198,329.08539 h -0.97656 v -6.83594 h 0.97656 v 0.48828 q 0.16276,-0.48828 0.65104,-0.48828 1.30208,0 1.30208,1.79037 h -0.97656 v -0.32553 q 0,-0.48828 -0.48828,-0.48828 -0.48828,0 -0.48828,0.48828 z"
             id="path5197"
             inkscape:connector-curvature="0" />
          <path
             d="m 110.34115,326.1557 v 1.46484 q 0,0.48829 0.48828,0.48829 0.48828,0 0.48828,-0.48829 v -0.8138 h 0.97656 v 0.48828 q 0,1.79037 -1.30208,1.79037 h -0.32552 q -1.30209,0 -1.30209,-1.79037 v -3.2552 q 0,-1.79037 1.30209,-1.79037 h 0.32552 q 1.30208,0 1.30208,1.79037 v 2.11588 z m 0.97656,-2.44141 q 0,-0.48828 -0.48177,-0.48828 -0.49479,0 -0.49479,0.48828 v 1.46485 h 0.97656 z"
             id="path5199"
             inkscape:connector-curvature="0" />
          <path
             d="m 115.5625,321.27289 v -0.97656 l 3.32031,0.007 v 0.97005 h -1.17187 v 7.8125 h -0.97657 v -7.8125 z"
             id="path5201"
             inkscape:connector-curvature="0" />
          <path
             d="m 119.45573,326.1557 v 1.46484 q 0,0.48829 0.48828,0.48829 0.48828,0 0.48828,-0.48829 v -0.8138 h 0.97656 v 0.48828 q 0,1.79037 -1.30208,1.79037 h -0.32552 q -1.30208,0 -1.30208,-1.79037 v -3.2552 q 0,-1.79037 1.30208,-1.79037 h 0.32552 q 1.30208,0 1.30208,1.79037 v 2.11588 z m 0.97656,-2.44141 q 0,-0.48828 -0.48177,-0.48828 -0.49479,0 -0.49479,0.48828 v 1.46485 h 0.97656 z"
             id="path5203"
             inkscape:connector-curvature="0" />
          <path
             d="m 124.02604,323.71429 q 0,-0.48828 -0.48828,-0.48828 -0.48828,0 -0.48828,0.48828 v 5.3711 h -0.97656 v -6.83594 h 0.97656 v 0.48828 q 0.16276,-0.48828 0.65104,-0.48828 0.48828,0 0.8138,0.48828 0.32552,-0.48828 0.8138,-0.48828 h 0.32553 q 1.30208,0 1.30208,1.79037 v 5.04557 h -0.97656 v -5.3711 q 0,-0.48828 -0.48829,-0.48828 -0.48828,0 -0.48828,0.48828 v 5.3711 h -0.97656 z"
             id="path5205"
             inkscape:connector-curvature="0" />
          <path
             d="m 129.08463,323.22601 q -0.48828,0 -0.48828,0.48828 v 3.90625 q 0,0.48829 0.48828,0.48829 0.48829,0 0.48829,-0.48829 v -3.90625 q -0.007,-0.48828 -0.48829,-0.48828 z m 1.46485,4.06901 q 0,1.79037 -1.30208,1.79037 -0.48829,0 -0.65105,-0.48828 v 2.43489 l -0.97656,0.007 v -8.78906 h 0.97656 v 0.48828 q 0.16276,-0.48828 0.65105,-0.48828 1.30208,0 1.30208,1.79037 z"
             id="path5207"
             inkscape:connector-curvature="0" />
        </g>
        <g
           aria-label="Hull Integrity"
           style="font-style:normal;font-variant:normal;font-weight:normal;font-stretch:normal;font-size:13.33333302px;line-height:1.25;font-family:okuda;-inkscape-font-specification:okuda;letter-spacing:0px;word-spacing:0px;fill:#000000;fill-opacity:1;stroke:none"
           id="text1297">
          <path
             d="m 90.86322,306.59961 v -8.78906 h 0.976563 v 3.58073 h 1.302083 v -3.58073 h 0.976562 v 8.78906 h -0.976562 v -4.23177 h -1.302083 v 4.23177 z"
             style="font-size:13.33333302px"
             id="path5210"
             inkscape:connector-curvature="0" />
          <path
             d="m 96.722595,299.76367 h 0.976563 v 6.83594 h -0.976563 v -0.48828 q -0.16276,0.48828 -0.651041,0.48828 -1.302084,0 -1.302084,-1.79037 v -5.04557 h 0.976563 v 5.3711 q 0,0.48828 0.488281,0.48828 0.488281,0 0.488281,-0.48828 z"
             style="font-size:13.33333302px"
             id="path5212"
             inkscape:connector-curvature="0" />
          <path
             d="m 98.36322,306.59961 v -8.78906 h 0.976563 v 8.78906 z"
             style="font-size:13.33333302px"
             id="path5214"
             inkscape:connector-curvature="0" />
          <path
             d="m 100.00385,306.59961 v -8.78906 h 0.97656 v 8.78906 z"
             style="font-size:13.33333302px"
             id="path5216"
             inkscape:connector-curvature="0" />
          <path
             d="m 104.24864,306.59961 v -8.78906 h 0.97656 v 8.78906 z"
             style="font-size:13.33333302px"
             id="path5218"
             inkscape:connector-curvature="0" />
          <path
             d="m 106.86582,306.59961 h -0.97656 v -6.83594 h 0.97656 v 0.48828 q 0.16276,-0.48828 0.65105,-0.48828 1.30208,0 1.30208,1.79037 v 5.04557 h -0.97656 v -5.37109 q 0,-0.48829 -0.48829,-0.48829 -0.48828,0 -0.48828,0.48829 z"
             style="font-size:13.33333302px"
             id="path5220"
             inkscape:connector-curvature="0" />
          <path
             d="m 110.74603,306.59961 q -0.97656,0 -0.97656,-0.97656 v -4.88282 h -0.65104 v -0.97656 h 0.65104 v -0.97656 h 0.97656 v 0.97656 h 0.65104 v 0.97656 h -0.65104 v 4.5573 q 0,0.32552 0.39063,0.32552 h 0.26041 v 0.97656 z"
             style="font-size:13.33333302px"
             id="path5222"
             inkscape:connector-curvature="0" />
          <path
             d="m 113.0377,303.66992 v 1.46485 q 0,0.48828 0.48828,0.48828 0.48828,0 0.48828,-0.48828 v -0.81381 h 0.97656 v 0.48828 q 0,1.79037 -1.30208,1.79037 h -0.32552 q -1.30208,0 -1.30208,-1.79037 v -3.2552 q 0,-1.79037 1.30208,-1.79037 h 0.32552 q 1.30208,0 1.30208,1.79037 v 2.11588 z m 0.97656,-2.4414 q 0,-0.48829 -0.48177,-0.48829 -0.49479,0 -0.49479,0.48829 v 1.46484 h 0.97656 z"
             style="font-size:13.33333302px"
             id="path5224"
             inkscape:connector-curvature="0" />
          <path
             d="m 117.11973,305.62305 q 0.48828,0 0.48828,-0.48828 v -3.90625 q 0,-0.48829 -0.49479,-0.48829 -0.48177,0 -0.48177,0.48829 v 3.90625 q 0,0.48828 0.48828,0.48828 z m -1.46484,-4.06901 q 0,-1.79037 1.36718,-1.79037 0.42318,0 0.58594,0.55339 v -0.55339 h 0.97656 v 7.32422 q 0,1.79037 -1.30208,1.79037 l -0.32552,-0.007 q -1.30208,0 -1.30208,-1.78385 h 0.97656 v 0.32552 q 0,0.48828 0.48828,0.48828 0.48828,0 0.48828,-0.48828 v -1.30208 q -0.16276,0.48828 -0.65104,0.48828 -1.30208,0 -1.30208,-1.79037 z"
             style="font-size:13.33333302px"
             id="path5226"
             inkscape:connector-curvature="0" />
          <path
             d="m 120.2252,306.59961 h -0.97656 v -6.83594 h 0.97656 v 0.48828 q 0.16276,-0.48828 0.65104,-0.48828 1.30208,0 1.30208,1.79037 h -0.97656 v -0.32552 q 0,-0.48829 -0.48828,-0.48829 -0.48828,0 -0.48828,0.48829 z"
             style="font-size:13.33333302px"
             id="path5228"
             inkscape:connector-curvature="0" />
          <path
             d="m 122.84239,306.59961 v -6.83594 h 0.97656 v 6.83594 z m 0.97656,-8.78906 v 0.97656 h -0.97656 v -0.97656 z"
             style="font-size:13.33333302px"
             id="path5230"
             inkscape:connector-curvature="0" />
          <path
             d="m 126.11062,306.59961 q -0.97657,0 -0.97657,-0.97656 v -4.88282 h -0.65104 v -0.97656 h 0.65104 v -0.97656 h 0.97657 v 0.97656 h 0.65104 v 0.97656 h -0.65104 v 4.5573 q 0,0.32552 0.39062,0.32552 h 0.26042 v 0.97656 z"
             style="font-size:13.33333302px"
             id="path5232"
             inkscape:connector-curvature="0" />
          <path
             d="m 128.08327,299.76367 0.67058,4.34896 0.65104,-4.34896 h 1.02213 l -1.41276,8.00781 q -0.19531,0.78125 -0.78125,0.78125 h -1.17187 v -0.97656 h 0.78125 q 0.39062,0 0.39062,-0.78125 v -0.19531 l -1.17187,-6.83594 z"
             style="font-size:13.33333302px"
             id="path5234"
             inkscape:connector-curvature="0" />
        </g>
        <g
           aria-label="OK"
           style="font-style:normal;font-variant:normal;font-weight:normal;font-stretch:normal;font-size:16px;line-height:1.25;font-family:okuda;-inkscape-font-specification:okuda;text-align:end;letter-spacing:0px;word-spacing:0px;text-anchor:end;fill:#9999ff;fill-opacity:1;stroke:none"
           id="text1312">
          <path
             d="m 182.14844,258.625 h -0.39063 q -0.58594,0 -0.58594,0.58594 v 7.03125 q 0,0.58593 0.58594,0.58593 h 0.39063 q 0.58593,0 0.58593,-0.58593 v -7.03125 q 0,-0.58594 -0.58593,-0.58594 z m 1.75781,7.22656 q 0,2.14844 -1.5625,2.14844 H 181.5625 Q 180,268 180,265.85156 v -6.25 q 0,-2.14844 1.5625,-2.14844 h 0.78125 q 1.5625,0 1.5625,2.14844 z"
             id="path5168"
             inkscape:connector-curvature="0" />
          <path
             d="M 186.25,262.33594 188.98437,268 h -1.36718 l -1.75782,-3.64063 V 268 h -1.17187 v -10.54688 h 1.17187 v 3.14063 l 1.75782,-3.14063 h 1.36718 z"
             id="path5170"
             inkscape:connector-curvature="0" />
        </g>
        <g
           aria-label="Active"
           style="font-style:normal;font-variant:normal;font-weight:normal;font-stretch:normal;font-size:16px;line-height:1.25;font-family:okuda;-inkscape-font-specification:okuda;text-align:end;letter-spacing:0px;word-spacing:0px;text-anchor:end;fill:#9999ff;fill-opacity:1;stroke:none"
           id="text1316">
          <path
             d="M 168.67187,286.65625 168.36719,289 H 167 l 1.36719,-10.54688 h 1.5625 L 171.29687,289 h -1.36718 l -0.30469,-2.34375 z m 0.80469,-1.17188 -0.32812,-2.50781 -0.32813,2.50781 z"
             id="path5173"
             inkscape:connector-curvature="0" />
          <path
             d="m 174,286.26562 h 1.17187 v 0.58594 q 0,2.14844 -1.5625,2.14844 h -0.39062 q -1.5625,0 -1.5625,-2.14844 v -3.90625 q 0,-2.14844 1.5625,-2.14844 h 0.39062 q 1.5625,0 1.5625,2.14844 v 0.58594 H 174 v -0.97656 q 0,-0.58594 -0.57813,-0.58594 -0.59375,0 -0.59375,0.58594 v 4.6875 q 0,0.58593 0.58594,0.58593 0.58594,0 0.58594,-0.58593 z"
             id="path5175"
             inkscape:connector-curvature="0" />
          <path
             d="m 177.48437,289 q -1.17187,0 -1.17187,-1.17188 v -5.85937 h -0.78125 v -1.17188 h 0.78125 V 279.625 h 1.17187 v 1.17187 h 0.78125 v 1.17188 h -0.78125 v 5.46875 q 0,0.39062 0.46875,0.39062 h 0.3125 V 289 Z"
             id="path5177"
             inkscape:connector-curvature="0" />
          <path
             d="m 179.0625,289 v -8.20313 h 1.17187 V 289 Z m 1.17187,-10.54688 v 1.17188 h -1.17187 v -1.17188 z"
             id="path5179"
             inkscape:connector-curvature="0" />
          <path
             d="m 182.25781,280.79687 0.80469,5.21875 0.78125,-5.21875 h 1.22656 L 183.60937,289 h -1.17187 l -1.40625,-8.20313 z"
             id="path5181"
             inkscape:connector-curvature="0" />
          <path
             d="m 186.48437,285.48437 v 1.75782 q 0,0.58593 0.58594,0.58593 0.58594,0 0.58594,-0.58593 v -0.97657 h 1.17187 v 0.58594 q 0,2.14844 -1.5625,2.14844 H 186.875 q -1.5625,0 -1.5625,-2.14844 v -3.90625 q 0,-2.14844 1.5625,-2.14844 h 0.39062 q 1.5625,0 1.5625,2.14844 v 2.53906 z m 1.17188,-2.92968 q 0,-0.58594 -0.57813,-0.58594 -0.59375,0 -0.59375,0.58594 v 1.75781 h 1.17188 z"
             id="path5183"
             inkscape:connector-curvature="0" />
        </g>
        <g
           aria-label="95%"
           style="font-style:normal;font-variant:normal;font-weight:normal;font-stretch:normal;font-size:16px;line-height:1.25;font-family:okuda;-inkscape-font-specification:okuda;text-align:end;letter-spacing:0px;word-spacing:0px;text-anchor:end;fill:#9999ff;fill-opacity:1;stroke:none"
           id="text1320">
          <path
             d="m 175.75781,304.92187 q 0.58594,0 0.58594,-0.58593 v -3.125 q 0,-0.58594 -0.59375,-0.58594 -0.57813,0 -0.57813,0.58594 v 3.125 q 0,0.58593 0.58594,0.58593 z M 174,301.60156 q 0,-2.14844 1.5625,-2.14844 h 0.39062 q 1.5625,0 1.5625,2.14844 v 6.25 q 0,2.14844 -1.5625,2.14844 H 175.5625 Q 174,310 174,307.85156 v -0.58594 h 1.17187 v 0.97657 q 0,0.58593 0.58594,0.58593 0.57813,0 0.58594,-0.58593 v -2.34375 q 0,0.19531 -0.78125,0.19531 -1.5625,0 -1.5625,-2.14844 z"
             id="path5186"
             inkscape:connector-curvature="0" />
          <path
             d="m 178.3125,305.11719 v -5.66407 h 3.51562 v 1.17188 h -2.34375 v 2.92969 q 0,-0.19532 0.78125,-0.19532 1.5625,0 1.5625,2.14844 v 2.34375 q 0,2.14844 -1.5625,2.14844 H 179.875 q -1.5625,0 -1.5625,-2.14844 v -0.58594 h 1.17187 v 0.97657 q 0,0.58593 0.59375,0.58593 0.57813,0 0.57813,-0.58593 v -3.125 q 0,-0.58594 -0.58594,-0.58594 -0.58594,0 -0.58594,0.58594 z"
             id="path5188"
             inkscape:connector-curvature="0" />
          <path
             d="m 184.38281,300.625 q -0.58594,0 -0.58594,0.58594 v 1.5625 q 0,0.58593 0.58594,0.58593 0.58594,0 0.58594,-0.58593 v -1.5625 q 0,-0.58594 -0.58594,-0.58594 z m 2.73438,5.46875 q -0.58594,0 -0.58594,0.58594 v 1.5625 q 0,0.58593 0.58594,0.58593 0.58593,0 0.58593,-0.58593 v -1.5625 q 0,-0.58594 -0.58593,-0.58594 z m -1.90625,-1.67188 q -0.27344,0.10938 -0.63282,0.10938 h -0.39062 q -1.5625,0 -1.5625,-2.14844 v -0.78906 q 0,-2.14063 1.5625,-2.14063 l 0.39062,-0.008 q 1.5625,0.008 1.5625,2.15625 v 0.80469 l 1.36719,-2.95313 h 1.36719 l -2.58594,5.57813 q 0.28125,-0.10938 0.63281,-0.10938 l 0.39063,-0.008 q 1.5625,0.008 1.5625,2.15625 v 0.78125 Q 188.875,310 187.3125,310 h -0.39063 q -1.5625,0 -1.5625,-2.14844 v -0.80469 L 183.99219,310 H 182.625 Z"
             id="path5190"
             inkscape:connector-curvature="0" />
        </g>
        <g
           aria-label="50°C"
           style="font-style:normal;font-variant:normal;font-weight:normal;font-stretch:normal;font-size:5.33333349px;line-height:12;font-family:okuda;-inkscape-font-specification:okuda;text-align:end;letter-spacing:0px;word-spacing:0px;text-anchor:end;fill:#9999ff;fill-opacity:1;stroke:none"
           id="text1326"
           transform="translate(-0.94243,0.12653)">
          <path
             d="m 170.94243,325.99066 v -5.66406 h 3.51562 v 1.17187 h -2.34375 v 2.92969 q 0,-0.19531 0.78125,-0.19531 1.5625,0 1.5625,2.14844 v 2.34375 q 0,2.14843 -1.5625,2.14843 h -0.39062 q -1.5625,0 -1.5625,-2.14843 v -0.58594 h 1.17187 v 0.97656 q 0,0.58594 0.59375,0.58594 0.57813,0 0.57813,-0.58594 v -3.125 q 0,-0.58594 -0.58594,-0.58594 -0.58594,0 -0.58594,0.58594 z"
             style="font-size:16px;line-height:1.20000005"
             id="path5150"
             inkscape:connector-curvature="0" />
          <path
             d="m 177.02055,321.49847 q -0.59375,0 -0.59375,0.58594 v 7.03125 q 0,0.58594 0.59375,0.58594 0.57813,0 0.57813,-0.58594 v -7.03125 q 0,-0.58594 -0.57813,-0.58594 z m 1.75,7.22657 q 0,2.14843 -1.5625,2.14843 h -0.39062 q -1.5625,0 -1.5625,-2.14843 v -6.25 q 0,-2.14844 1.5625,-2.14844 h 0.39062 q 1.5625,0 1.5625,2.14844 z"
             style="font-size:16px;line-height:1.20000005"
             id="path5152"
             inkscape:connector-curvature="0" />
          <path
             sodipodi:type="inkscape:offset"
             inkscape:radius="0.19103982"
             inkscape:original="M 181.12305 319.60742 C 180.51888 319.60742 180.00326 319.81836 179.57617 320.24023 C 179.1543 320.66211 178.94336 321.17513 178.94336 321.7793 C 178.94336 322.38346 179.15169 322.89648 179.56836 323.31836 C 179.98503 323.74023 180.49805 323.95117 181.10742 323.95117 C 181.70638 323.95117 182.2194 323.73763 182.64648 323.31055 C 183.07357 322.88347 183.28711 322.37305 183.28711 321.7793 C 183.28711 321.18034 183.07617 320.66993 182.6543 320.24805 C 182.23242 319.82097 181.722 319.60742 181.12305 319.60742 z M 181.12305 320.1543 C 181.57096 320.1543 181.95117 320.31315 182.26367 320.63086 C 182.58138 320.94857 182.74023 321.33398 182.74023 321.78711 C 182.74023 322.24023 182.58398 322.62305 182.27148 322.93555 C 181.95898 323.24805 181.57617 323.4043 181.12305 323.4043 C 180.66992 323.4043 180.2845 323.24805 179.9668 322.93555 C 179.64908 322.62305 179.49023 322.24023 179.49023 321.78711 C 179.49023 321.33398 179.64908 320.94857 179.9668 320.63086 C 180.28971 320.31315 180.67513 320.1543 181.12305 320.1543 z "
             style="font-size:16px;line-height:1.20000005"
             id="path5154"
             d="m 181.12305,319.41602 c -0.64864,0 -1.22251,0.23398 -1.68164,0.6875 a 0.19105892,0.19105892 0 0 0 0,0.002 c -0.45411,0.45412 -0.68946,1.02519 -0.68946,1.67383 0,0.64807 0.23098,1.21951 0.67969,1.67382 0.44939,0.455 1.02232,0.68946 1.67578,0.68946 0.64437,0 1.21517,-0.23861 1.67383,-0.69727 0.45839,-0.45838 0.69727,-1.02646 0.69727,-1.66601 0,-0.64382 -0.23563,-1.21218 -0.68946,-1.66602 -0.45345,-0.45845 -1.02222,-0.69726 -1.66601,-0.69726 z m 0,0.92968 c 0.40274,0 0.7234,0.13475 1.0039,0.41992 a 0.19105892,0.19105892 0 0 0 0.002,0 c 0.2856,0.28561 0.41992,0.61301 0.41992,1.02149 0,0.4092 -0.13226,0.73382 -0.41211,1.01367 -0.27986,0.27986 -0.60447,0.41211 -1.01367,0.41211 -0.40922,0 -0.73616,-0.1334 -1.02149,-0.41406 -0.2848,-0.28013 -0.41992,-0.60325 -0.41992,-1.01172 0,-0.4079 0.13516,-0.73422 0.41992,-1.01953 0.29143,-0.28674 0.61873,-0.42188 1.02149,-0.42188 z"
             transform="matrix(0.69586826,0,0,0.88259982,55.801642,38.054397)" />
          <path
             d="m 186.8018,328.1391 h 1.17188 v 0.58594 q 0,2.14843 -1.5625,2.14843 h -0.78125 q -1.5625,0 -1.5625,-2.14843 v -6.25 q 0,-2.14844 1.5625,-2.14844 h 0.78125 q 1.5625,0 1.5625,2.14844 v 0.58593 h -1.17188 v -0.97656 q 0,-0.58594 -0.58593,-0.58594 h -0.39063 q -0.58594,0 -0.58594,0.58594 v 7.03125 q 0,0.58594 0.58594,0.58594 h 0.39063 q 0.58593,0 0.58593,-0.58594 z"
             style="font-size:16px;line-height:1.20000005"
             id="path5156"
             inkscape:connector-curvature="0" />
        </g>
        <path
           style="opacity:1;fill:#cb99cc;fill-opacity:1;fill-rule:evenodd;stroke:#000000;stroke-width:4;stroke-linecap:butt;stroke-linejoin:miter;stroke-miterlimit:4;stroke-dasharray:none;stroke-opacity:1"
           d="m 195,251 h 23.75 c 16.21718,0 15.83059,21 0,21 H 195 Z"
           id="rect1330"
           inkscape:connector-curvature="0"
           sodipodi:nodetypes="csscc"
           inkscape:tile-cx="212.88418"
           inkscape:tile-cy="262.25"
           inkscape:tile-w="39.768324"
           inkscape:tile-h="22.5"
           inkscape:tile-x0="193"
           inkscape:tile-y0="251" />
        <use
           x="0"
           y="0"
           inkscape:tiled-clone-of="#rect1330"
           xlink:href="#rect1330"
           id="use5037"
           width="100%"
           height="100%"
           transform="translate(-2)" />
        <use
           x="0"
           y="0"
           inkscape:tiled-clone-of="#rect1330"
           xlink:href="#rect1330"
           transform="translate(-2.31341,21)"
           id="use5039"
           width="100%"
           height="100%" />
        <use
           x="0"
           y="0"
           inkscape:tiled-clone-of="#rect1330"
           xlink:href="#rect1330"
           transform="translate(-2.31341,41.5)"
           id="use5041"
           width="100%"
           height="100%" />
        <use
           x="0"
           y="0"
           inkscape:tiled-clone-of="#rect1330"
           xlink:href="#rect1330"
           transform="translate(-2.31341,63.75)"
           id="use5043"
           width="100%"
           height="100%" />
      </g>
    </g>
  </g>
</svg>
